<svg width="64" height="64" viewBox="0 0 64 64" fill="none" xmlns="http://www.w3.org/2000/svg">
<g clip-path="url(#clip0_138_3635)">
<path d="M13.3333 18.6667H16C17.4145 18.6667 18.771 18.1048 19.7712 17.1046C20.7714 16.1044 21.3333 14.7478 21.3333 13.3333C21.3333 12.6261 21.6143 11.9478 22.1144 11.4477C22.6145 10.9476 23.2928 10.6667 24 10.6667H40C40.7072 10.6667 41.3855 10.9476 41.8856 11.4477C42.3857 11.9478 42.6667 12.6261 42.6667 13.3333C42.6667 14.7478 43.2286 16.1044 44.2288 17.1046C45.229 18.1048 46.5855 18.6667 48 18.6667H50.6667C52.0812 18.6667 53.4377 19.2286 54.4379 20.2288C55.4381 21.2289 56 22.5855 56 24V48C56 49.4145 55.4381 50.771 54.4379 51.7712C53.4377 52.7714 52.0812 53.3333 50.6667 53.3333H13.3333C11.9188 53.3333 10.5623 52.7714 9.5621 51.7712C8.5619 50.771 8 49.4145 8 48V24C8 22.5855 8.5619 21.2289 9.5621 20.2288C10.5623 19.2286 11.9188 18.6667 13.3333 18.6667" stroke="#FF5C5C" stroke-width="4" stroke-linecap="round" stroke-linejoin="round"/>
<path d="M32 42.6667C36.4183 42.6667 40 39.0849 40 34.6667C40 30.2484 36.4183 26.6667 32 26.6667C27.5817 26.6667 24 30.2484 24 34.6667C24 39.0849 27.5817 42.6667 32 42.6667Z" stroke="#FF5C5C" stroke-width="2.5" stroke-linecap="round" stroke-linejoin="round"/>
</g>
<defs>
<clipPath id="clip0_138_3635">
<rect width="64" height="64" fill="white"/>
</clipPath>
</defs>
</svg>
