<svg width="65" height="64" viewBox="0 0 65 64" fill="none" xmlns="http://www.w3.org/2000/svg">
<path d="M48.6666 50.6667C51.6122 50.6667 53.9999 48.2789 53.9999 45.3333C53.9999 42.3877 51.6122 40 48.6666 40C45.721 40 43.3333 42.3877 43.3333 45.3333C43.3333 48.2789 45.721 50.6667 48.6666 50.6667Z" stroke="#FF5C5C" stroke-width="3" stroke-miterlimit="1.5" stroke-linecap="round" stroke-linejoin="round"/>
<path d="M27.4666 45.3333H40.6666V17.6C40.6666 16.7163 39.9503 16 39.0666 16H3.33325" stroke="#FF5C5C" stroke-width="4" stroke-linecap="round"/>
<path d="M15.7333 45.3334H10.2666C9.38297 45.3334 8.66663 44.6171 8.66663 43.7334V30.6667" stroke="#FF5C5C" stroke-width="4" stroke-linecap="round"/>
<path d="M6 24H16.6667" stroke="#FF5C5C" stroke-width="2.5" stroke-linecap="round" stroke-linejoin="round"/>
<path d="M40.6666 24H55.6269C56.2592 24 56.8322 24.3724 57.089 24.9502L61.8621 35.6896C61.953 35.8944 62 36.1157 62 36.3395V43.7333C62 44.6171 61.2837 45.3333 60.4 45.3333H55.3333" stroke="#FF5C5C" stroke-width="4" stroke-linecap="round"/>
<path d="M40.6666 45.3333H43.3333" stroke="#FF5C5C" stroke-width="1.5" stroke-linecap="round"/>
</svg>
