<svg width="93" height="93" viewBox="0 0 93 93" fill="none" xmlns="http://www.w3.org/2000/svg">
<path d="M7.24517 3.77771C7.32695 3.77743 7.32695 3.77743 7.41039 3.77714C7.4707 3.77723 7.53101 3.77732 7.59314 3.77742C7.68876 3.77722 7.68876 3.77722 7.78632 3.77702C8.00136 3.77665 8.2164 3.7767 8.43145 3.77674C8.58504 3.77657 8.73863 3.77637 8.89221 3.77615C9.26693 3.77567 9.64165 3.77551 10.0164 3.77547C10.3208 3.77545 10.6252 3.77533 10.9297 3.77514C11.792 3.77463 12.6544 3.77436 13.5168 3.7744C13.5633 3.77441 13.6098 3.77441 13.6577 3.77441C13.7276 3.77442 13.7276 3.77442 13.7989 3.77442C14.5542 3.77444 15.3095 3.77389 16.0648 3.77306C16.8396 3.77223 17.6144 3.77183 18.3892 3.77188C18.8245 3.7719 19.2598 3.77173 19.6951 3.77111C20.0657 3.77058 20.4362 3.77045 20.8067 3.77085C20.9959 3.77104 21.1851 3.77098 21.3743 3.77054C21.579 3.77009 21.7837 3.77035 21.9885 3.77081C22.0488 3.77051 22.1091 3.77021 22.1712 3.7699C22.253 3.7703 22.253 3.7703 22.3364 3.77071C22.4074 3.77069 22.4074 3.77069 22.4798 3.77067C22.5942 3.7852 22.5942 3.7852 22.7107 3.90167C22.6914 3.95932 22.6722 4.01697 22.6524 4.07637C22.9906 4.13158 23.3257 4.15234 23.6679 4.16736C23.7216 4.16988 23.7753 4.17239 23.8306 4.17499C23.962 4.18111 24.0934 4.18706 24.2247 4.19284C24.2247 4.26971 24.2247 4.34658 24.2247 4.42578C24.4321 4.4949 24.6308 4.50445 24.8471 4.51677C24.888 4.51928 24.9289 4.5218 24.971 4.52439C25.0716 4.53055 25.1723 4.53643 25.273 4.54225C25.2622 4.57948 25.2513 4.61671 25.2402 4.65508C25.2318 4.69471 25.2234 4.73435 25.2147 4.77518C25.3202 4.88066 25.4833 4.85566 25.626 4.86617C25.6903 4.87105 25.7547 4.87593 25.821 4.88096C25.8707 4.88449 25.9205 4.88802 25.9718 4.89165C25.991 4.98774 26.0102 5.08383 26.03 5.18282C26.2414 5.22126 26.4528 5.25969 26.6706 5.29929C26.6898 5.39538 26.709 5.49146 26.7288 5.59046C26.9594 5.61929 26.9594 5.61929 27.1947 5.6487C27.1995 5.68465 27.2043 5.72061 27.2092 5.75766C27.2414 5.88952 27.2414 5.88952 27.3585 5.94919C27.4005 5.96654 27.4425 5.98388 27.4859 6.00174C27.6132 6.05474 27.6132 6.05474 27.7188 6.11457C27.738 6.17222 27.7572 6.22987 27.777 6.28927C27.9116 6.30849 28.0461 6.32771 28.1847 6.34751C28.2039 6.44359 28.2231 6.53968 28.2429 6.63868C28.339 6.6579 28.4351 6.67711 28.5341 6.69691C28.5533 6.81222 28.5725 6.92752 28.5923 7.04632C28.6884 7.04632 28.7845 7.04632 28.8835 7.04632C28.8967 7.09196 28.9099 7.1376 28.9235 7.18462C28.9872 7.35023 28.9872 7.35023 29.1528 7.41392C29.2213 7.43374 29.2213 7.43374 29.2911 7.45396C29.2911 7.55004 29.2911 7.64613 29.2911 7.74513C29.3872 7.74513 29.4833 7.74513 29.5823 7.74513C29.6207 7.86043 29.6592 7.97574 29.6988 8.09453C29.7948 8.11375 29.8909 8.13297 29.9899 8.15277C29.9899 8.24885 29.9899 8.34494 29.9899 8.44394C30.1286 8.52627 30.1286 8.52627 30.2811 8.56041C30.3063 8.64148 30.3063 8.64148 30.3321 8.72419C30.391 8.91551 30.391 8.91551 30.514 9.08451C30.5717 9.10373 30.6293 9.12295 30.6887 9.14275C30.708 9.27727 30.7272 9.41179 30.747 9.55039C30.8431 9.5696 30.9391 9.58882 31.0381 9.60862C31.0766 9.82001 31.115 10.0314 31.1546 10.2492C31.2507 10.2684 31.3468 10.2876 31.4458 10.3074C31.465 10.5573 31.4842 10.8071 31.504 11.0645C31.6001 11.026 31.6962 10.9876 31.7952 10.948C31.7987 11.0097 31.8022 11.0714 31.8059 11.135C31.8108 11.2158 31.8157 11.2967 31.8207 11.3775C31.823 11.4182 31.8252 11.4589 31.8276 11.5008C31.8384 11.7268 31.8384 11.7268 31.9117 11.938C31.9693 11.9572 32.027 11.9764 32.0864 11.9962C32.1056 11.9578 32.1248 11.9194 32.1446 11.8798C32.1461 11.9121 32.1475 11.9444 32.149 11.9776C32.1558 12.1246 32.1629 12.2715 32.1701 12.4184C32.1735 12.4947 32.1735 12.4947 32.177 12.5724C32.1795 12.6216 32.1819 12.6708 32.1844 12.7214C32.1865 12.7666 32.1887 12.8117 32.1909 12.8582C32.2026 12.9837 32.2271 13.0979 32.2611 13.2191C32.3379 13.1999 32.4148 13.1807 32.494 13.1609C32.494 30.8216 32.494 48.4823 32.494 66.6781C32.6862 66.6781 32.8783 66.6781 33.0763 66.6781C33.0763 66.755 33.0763 66.8319 33.0763 66.9111C33.2101 66.9779 33.3138 66.9872 33.4621 67.0021C33.5335 67.0094 33.5335 67.0094 33.6064 67.0168C33.6611 67.0221 33.6611 67.0221 33.7169 67.0275C33.7169 67.1044 33.7169 67.1813 33.7169 67.2605C33.7541 67.2704 33.7912 67.2803 33.8295 67.2905C33.8776 67.3046 33.9258 67.3187 33.9753 67.3333C34.0233 67.3468 34.0713 67.3603 34.1207 67.3742C34.241 67.4352 34.241 67.4352 34.2867 67.558C34.2929 67.6125 34.2929 67.6125 34.2993 67.6681C34.5309 67.7108 34.5309 67.7108 34.7651 67.7263C34.7651 67.8416 34.7651 67.9569 34.7651 68.0757C34.842 68.0757 34.9189 68.0757 34.9981 68.0757C34.9886 68.0439 34.9792 68.012 34.9694 67.9791C34.9358 67.8242 34.9325 67.6843 34.9325 67.5257C34.9323 67.4608 34.9321 67.3958 34.932 67.3289C34.9321 67.2574 34.9322 67.1859 34.9323 67.1122C34.9322 67.0361 34.9321 66.9599 34.932 66.8815C34.9318 66.669 34.9319 66.4565 34.932 66.244C34.9321 66.0132 34.9318 65.7824 34.9317 65.5516C34.9314 65.1468 34.9313 64.7419 34.9313 64.3371C34.9314 63.735 34.9312 63.133 34.9309 62.5309C34.9303 61.393 34.9301 60.255 34.9301 59.1171C34.9301 58.2381 34.93 57.3591 34.9298 56.4802C34.9297 56.2273 34.9297 55.9745 34.9296 55.7217C34.9296 55.6588 34.9296 55.596 34.9296 55.5312C34.9292 53.7624 34.929 51.9936 34.929 50.2247C34.929 50.158 34.929 50.0913 34.929 50.0225C34.929 49.6843 34.929 49.3461 34.929 49.0078C34.929 48.9071 34.929 48.9071 34.929 48.8043C34.929 48.6684 34.929 48.5326 34.929 48.3967C34.9291 46.2844 34.9286 44.1722 34.9279 42.0599C34.927 39.6873 34.9265 37.3148 34.9265 34.9423C34.9265 34.6892 34.9265 34.4361 34.9265 34.183C34.9265 34.0896 34.9265 34.0896 34.9265 33.9942C34.9265 32.9918 34.9261 31.9894 34.9256 30.987C34.9252 29.9791 34.9251 28.9711 34.9255 27.9631C34.9257 27.3645 34.9256 26.7659 34.925 26.1674C34.9247 25.767 34.9247 25.3667 34.9252 24.9664C34.9254 24.7386 34.9254 24.5108 34.925 24.2831C34.9232 23.404 34.9242 22.5342 35.0563 21.6631C35.1332 21.6823 35.21 21.7015 35.2892 21.7213C35.3253 21.6258 35.3253 21.6258 35.362 21.5284C35.4549 21.3597 35.5102 21.3183 35.6932 21.2477C35.8686 21.2051 36.0429 21.1684 36.221 21.139C36.1826 21.0621 36.1441 20.9853 36.1045 20.9061C51.4399 20.9061 66.7753 20.9061 82.5754 20.9061C82.5562 20.9637 82.537 21.0214 82.5172 21.0808C82.6919 21.1972 82.7521 21.2102 82.9503 21.2336C83.119 21.2672 83.193 21.2851 83.302 21.4206C83.382 21.5801 83.4489 21.7159 83.4489 21.896C83.5258 21.896 83.6027 21.896 83.6819 21.896C83.7011 21.8576 83.7203 21.8192 83.7401 21.7796C83.7401 38.0374 83.7401 54.2952 83.7401 71.0457C83.8554 71.0265 83.9707 71.0073 84.0895 70.9875C84.2028 70.9824 84.3163 70.9799 84.4298 70.9797C84.4928 70.9796 84.5558 70.9796 84.6207 70.9795C84.6856 70.9797 84.7505 70.9799 84.8174 70.9802C84.9148 70.9798 84.9148 70.9798 85.0142 70.9795C85.0772 70.9796 85.1402 70.9796 85.205 70.9797C85.2905 70.9798 85.2905 70.9798 85.3776 70.9799C85.5539 70.9878 85.7214 71.0133 85.8948 71.0457C85.8755 71.1033 85.8563 71.161 85.8365 71.2204C86.0685 71.3279 86.27 71.3578 86.5244 71.3733C86.6259 71.3798 86.6259 71.3798 86.7294 71.3865C86.7806 71.3893 86.8319 71.3922 86.8847 71.3951C86.8655 71.472 86.8463 71.5488 86.8265 71.628C86.9602 71.6949 87.0639 71.7042 87.2123 71.719C87.2599 71.7239 87.3075 71.7288 87.3565 71.7338C87.4112 71.7391 87.4112 71.7391 87.4671 71.7445C87.4671 71.8214 87.4671 71.8982 87.4671 71.9774C87.5125 71.9976 87.5125 71.9976 87.5588 72.0182C87.8316 72.1458 88.0149 72.2803 88.2241 72.5015C88.2818 72.5208 88.3394 72.54 88.3988 72.5598C88.4571 72.6568 88.5153 72.7539 88.5735 72.851C88.6312 72.8702 88.6888 72.8894 88.7482 72.9092C88.8065 73.0257 88.8647 73.1421 88.9229 73.2586C89.0188 73.3568 89.1158 73.454 89.2141 73.5498C89.2447 73.6146 89.2447 73.6146 89.276 73.6808C89.3227 73.7956 89.3227 73.7956 89.4543 73.8264C89.4904 73.8312 89.5264 73.836 89.5635 73.8409C89.5827 73.9947 89.6019 74.1484 89.6217 74.3068C89.6986 74.3068 89.7755 74.3068 89.8547 74.3068C89.8739 74.3068 89.8931 74.3068 89.9129 74.3068C89.9182 74.3857 89.9182 74.3857 89.9236 74.4663C89.9285 74.535 89.9334 74.6036 89.9384 74.6744C89.9431 74.7426 89.9479 74.8109 89.9527 74.8812C89.9646 75.0654 89.9646 75.0654 90.0294 75.2386C90.1063 75.2386 90.1831 75.2386 90.2623 75.2386C90.2623 76.4877 90.2623 77.7368 90.2623 79.0238C90.1855 78.9661 90.1086 78.9085 90.0294 78.8491C89.9683 79.0564 89.9535 79.2599 89.9384 79.4751C89.9311 79.5773 89.9311 79.5773 89.9236 79.6816C89.9183 79.7596 89.9183 79.7596 89.9129 79.8391C89.8168 79.8391 89.7207 79.8391 89.6217 79.8391C89.6167 79.8797 89.6117 79.9204 89.6065 79.9623C89.582 80.1209 89.5555 80.2689 89.5053 80.4214C89.3524 80.516 89.3524 80.516 89.2141 80.5379C89.2141 80.6339 89.2141 80.73 89.2141 80.829C89.118 80.8483 89.0219 80.8675 88.9229 80.8873C88.8845 81.0026 88.8461 81.1179 88.8065 81.2367C88.7104 81.2559 88.6143 81.2751 88.5153 81.2949C88.4961 81.391 88.4769 81.4871 88.4571 81.5861C88.361 81.6053 88.2649 81.6245 88.1659 81.6443C88.1467 81.7404 88.1275 81.8365 88.1077 81.9355C87.9924 81.9547 87.877 81.9739 87.7582 81.9937C87.7582 82.0898 87.7582 82.1859 87.7582 82.2849C87.5469 82.3041 87.3355 82.3233 87.1177 82.3431C87.1369 82.4392 87.1561 82.5353 87.1759 82.6343C86.9069 82.6727 86.6378 82.7112 86.3606 82.7508C86.3606 82.8276 86.3606 82.9045 86.3606 82.9837C86.2132 83.0574 86.1043 83.0521 85.9393 83.0563C85.8782 83.0582 85.8171 83.0601 85.7542 83.0621C85.6256 83.0656 85.497 83.0689 85.3684 83.0721C85.0582 83.0821 84.7866 83.0916 84.4971 83.2166C84.5932 83.2359 84.6893 83.2551 84.7883 83.2749C84.7883 83.3133 84.7883 83.3517 84.7883 83.3913C69.4529 83.3913 54.1175 83.3913 38.3174 83.3913C38.2982 83.3145 38.279 83.2376 38.2592 83.1584C38.1823 83.1392 38.1054 83.12 38.0262 83.1002C38.0118 83.1566 37.9974 83.2131 37.9826 83.2712C37.9586 83.3301 37.9345 83.3889 37.9098 83.4496C37.8329 83.4688 37.756 83.488 37.6768 83.5078C37.6384 83.6808 37.6 83.8537 37.5604 84.0319C37.4835 84.0511 37.4066 84.0703 37.3274 84.0901C37.289 84.2247 37.2506 84.3592 37.211 84.4978C37.1569 84.5014 37.1569 84.5014 37.1018 84.5051C37.0609 84.5219 37.0201 84.5387 36.978 84.556C36.9385 84.6722 36.8997 84.7887 36.8616 84.9054C36.785 84.9463 36.7072 84.9849 36.6286 85.0219C36.5504 85.138 36.4728 85.2545 36.3957 85.3713C36.338 85.3905 36.2804 85.4097 36.221 85.4295C36.2041 85.4637 36.1872 85.4978 36.1698 85.533C36.0826 85.7059 35.9627 85.8017 35.817 85.9282C35.6559 86.0688 35.4967 86.208 35.3475 86.3613C35.3162 86.3913 35.285 86.4213 35.2528 86.4523C35.1664 86.5344 35.1664 86.5344 35.1145 86.6525C34.9362 86.6888 34.9362 86.6888 34.7651 86.7107C34.7651 86.8068 34.7651 86.9029 34.7651 87.0019C34.6678 87.0091 34.6678 87.0091 34.5686 87.0164C34.4641 87.038 34.4641 87.038 34.3575 87.0601C34.3395 87.0961 34.3215 87.1322 34.3029 87.1693C34.2101 87.3548 34.0628 87.3742 33.873 87.4377C33.8245 87.4526 33.8245 87.4526 33.7752 87.4677C33.7752 87.5446 33.7752 87.6215 33.7752 87.7007C33.626 87.7305 33.477 87.7602 33.3275 87.788C33.1921 87.8115 33.1921 87.8115 33.0763 87.8754C33.0384 87.9933 33.0384 87.9933 33.0181 88.1083C32.9816 88.1118 32.9451 88.1154 32.9076 88.119C32.86 88.1239 32.8124 88.1288 32.7633 88.1338C32.716 88.1385 32.6687 88.1432 32.62 88.1481C32.4915 88.1602 32.4915 88.1602 32.3775 88.2248C32.3967 88.3016 32.416 88.3785 32.4358 88.4577C32.3741 88.4612 32.3124 88.4648 32.2488 88.4684C32.1679 88.4733 32.0871 88.4782 32.0063 88.4832C31.9656 88.4855 31.9249 88.4878 31.883 88.4901C31.657 88.501 31.657 88.501 31.4458 88.5742C31.4458 88.6511 31.4458 88.7279 31.4458 88.8071C31.023 88.8456 30.6002 88.884 30.1646 88.9236C30.1646 88.9812 30.1646 89.0389 30.1646 89.0983C30.2031 89.1175 30.2415 89.1367 30.2811 89.1565C30.0603 89.2301 29.8534 89.2233 29.6233 89.2232C29.5495 89.2235 29.5495 89.2235 29.4741 89.2238C29.3111 89.2244 29.1481 89.2245 28.9852 89.2245C28.8721 89.2247 28.759 89.2249 28.646 89.2251C28.409 89.2255 28.172 89.2256 27.935 89.2255C27.6308 89.2255 27.3265 89.2263 27.0223 89.2273C26.7888 89.228 26.5554 89.2281 26.3219 89.2281C26.2097 89.2281 26.0975 89.2284 25.9853 89.2288C25.8287 89.2294 25.6721 89.2293 25.5156 89.2289C25.4455 89.2294 25.4455 89.2294 25.3741 89.2299C25.0533 89.228 25.0533 89.2281 24.9236 89.0983C24.9236 89.0406 24.9236 88.983 24.9236 88.9236C24.52 88.8852 24.1164 88.8467 23.7006 88.8071C23.7006 88.7302 23.7006 88.6534 23.7006 88.5742C23.4987 88.5069 23.3197 88.4968 23.1074 88.4832C22.9962 88.4759 22.9962 88.4759 22.8829 88.4684C22.7976 88.4631 22.7976 88.4631 22.7107 88.4577C22.7215 88.4205 22.7323 88.3832 22.7434 88.3449C22.7518 88.3052 22.7602 88.2656 22.7689 88.2248C22.6634 88.1193 22.5003 88.1443 22.3576 88.1338C22.2611 88.1265 22.2611 88.1265 22.1627 88.119C22.1129 88.1155 22.0631 88.1119 22.0118 88.1083C22.0118 88.0122 22.0118 87.9161 22.0118 87.8171C21.8389 87.7787 21.6659 87.7403 21.4877 87.7007C21.4877 87.6238 21.4877 87.5469 21.4877 87.4677C21.2763 87.4293 21.065 87.3909 20.8472 87.3513C20.8279 87.2552 20.8087 87.1591 20.7889 87.0601C20.7043 87.0367 20.7043 87.0367 20.6179 87.0128C20.5296 86.9785 20.5296 86.9785 20.4395 86.9436C20.4203 86.886 20.4011 86.8283 20.3813 86.7689C20.2808 86.6926 20.2808 86.6926 20.1593 86.627C19.973 86.5159 19.829 86.4065 19.6825 86.2448C19.4962 86.0416 19.4962 86.0416 19.2676 85.8954C19.1136 85.8133 19.0707 85.6956 18.9837 85.546C18.8407 85.3955 18.6918 85.2541 18.5396 85.1129C18.4013 84.9637 18.4013 84.9637 18.3103 84.778C18.2441 84.6078 18.2441 84.6078 18.1065 84.556C17.9937 84.4978 17.9937 84.4978 17.9209 84.3158C17.8993 84.2329 17.8993 84.2329 17.8772 84.1484C17.8003 84.1484 17.7235 84.1484 17.6443 84.1484C17.6386 84.1119 17.6329 84.0754 17.627 84.0378C17.6183 83.9902 17.6096 83.9426 17.6006 83.8936C17.5925 83.8463 17.5844 83.799 17.576 83.7503C17.5136 83.5872 17.4469 83.5827 17.2949 83.5078C17.2339 83.3818 17.2339 83.3818 17.193 83.2385C17.1789 83.1909 17.1647 83.1433 17.1502 83.0943C17.1403 83.0578 17.1304 83.0213 17.1202 82.9837C17.0433 82.9837 16.9664 82.9837 16.8872 82.9837C16.868 82.7531 16.8488 82.5225 16.829 82.2849C16.7521 82.2849 16.6753 82.2849 16.5961 82.2849C16.5768 82.2849 16.5576 82.2849 16.5378 82.2849C16.5343 82.2329 16.5308 82.181 16.5271 82.1275C16.5223 82.0593 16.5174 81.9912 16.5124 81.9209C16.5076 81.8534 16.5029 81.7858 16.498 81.7162C16.4835 81.568 16.4632 81.437 16.4214 81.2949C16.3445 81.2949 16.2676 81.2949 16.1884 81.2949C16.15 80.9106 16.1116 80.5262 16.072 80.1302C15.9759 80.111 15.8798 80.0918 15.7808 80.072C15.7808 78.304 15.7808 76.536 15.7808 74.7144C15.8769 74.676 15.973 74.6376 16.072 74.598C16.125 74.4694 16.125 74.4694 16.1302 74.3068C16.1363 74.2344 16.1424 74.1619 16.1486 74.0873C16.1536 74.0088 16.1584 73.9303 16.1629 73.8519C16.1667 73.7913 16.1667 73.7913 16.1706 73.7296C16.1767 73.6308 16.1826 73.5321 16.1884 73.4333C16.2653 73.4333 16.3422 73.4333 16.4214 73.4333C16.4598 73.1258 16.4982 72.8183 16.5378 72.5015C16.5955 72.54 16.6531 72.5784 16.7125 72.618C16.8739 72.4567 16.8522 72.3405 16.8654 72.1157C16.8698 72.0465 16.8741 71.9773 16.8786 71.906C16.8829 71.8261 16.8829 71.8261 16.8872 71.7445C16.9065 71.7829 16.9257 71.8214 16.9455 71.861C17.0223 71.861 17.0992 71.861 17.1784 71.861C17.1976 71.688 17.2168 71.5151 17.2366 71.3369C17.3327 71.3176 17.4288 71.2984 17.5278 71.2786C17.5662 71.0672 17.6047 70.8558 17.6443 70.6381C17.7404 70.6188 17.8365 70.5996 17.9355 70.5798C17.9547 70.4645 17.9739 70.3492 17.9937 70.2304C18.0459 70.2268 18.0459 70.2268 18.0992 70.2231C18.2903 70.1467 18.3139 70.0046 18.4013 69.8228C18.5287 69.6845 18.5287 69.6845 18.6925 69.5316C18.7704 69.4542 18.848 69.3765 18.9254 69.2987C19.1001 69.124 19.2748 68.9493 19.4495 68.7746C19.4976 68.7229 19.5456 68.6713 19.5951 68.6181C19.7407 68.4834 19.7407 68.4834 19.8972 68.4252C20.0471 68.3775 20.0471 68.3775 20.1083 68.2141C20.1215 68.1684 20.1347 68.1228 20.1484 68.0757C20.2444 68.0757 20.3405 68.0757 20.4395 68.0757C20.4395 50.8763 20.4395 33.6768 20.4395 15.9561C20.4011 15.9561 20.3627 15.9561 20.3231 15.9561C20.2846 16.033 20.2462 16.1099 20.2066 16.1891C19.5708 16.1918 18.935 16.1939 18.2992 16.1951C18.004 16.1957 17.7088 16.1966 17.4136 16.1979C17.129 16.1991 16.8443 16.1998 16.5596 16.2001C16.4508 16.2004 16.3419 16.2008 16.2331 16.2014C16.0812 16.2022 15.9292 16.2024 15.7772 16.2023C15.7319 16.2027 15.6865 16.2031 15.6398 16.2036C15.3282 16.2024 15.3282 16.2024 15.1984 16.0726C15.2945 16.0534 15.3906 16.0342 15.4896 16.0144C15.4896 15.9952 15.4896 15.9759 15.4896 15.9561C14.8333 15.9406 14.177 15.9254 13.5207 15.9106C13.2157 15.9037 12.9106 15.8967 12.6056 15.8894C12.2514 15.881 11.8971 15.8729 11.5429 15.8652C11.4842 15.8639 11.4256 15.8626 11.3652 15.8612C10.4045 15.8406 9.44435 15.8347 8.48349 15.8418C7.94253 15.8451 7.41022 15.8306 6.87096 15.7814C6.90939 15.7046 6.94782 15.6277 6.98742 15.5485C6.66073 15.5101 6.33404 15.4716 5.99744 15.432C5.96862 15.2879 5.96862 15.2879 5.93921 15.1409C5.76625 15.1024 5.5933 15.064 5.4151 15.0244C5.4151 14.9475 5.4151 14.8707 5.4151 14.7915C5.24215 14.7722 5.06919 14.753 4.89099 14.7332C4.87178 14.6179 4.85256 14.5026 4.83276 14.3838C4.73667 14.3838 4.64059 14.3838 4.54159 14.3838C4.50315 14.2685 4.46472 14.1532 4.42512 14.0344C4.34825 14.0344 4.27138 14.0344 4.19218 14.0344C4.17297 13.9191 4.15375 13.8038 4.13395 13.685C4.03786 13.6658 3.94178 13.6466 3.84278 13.6268C3.80434 13.4538 3.76591 13.2809 3.72631 13.1027C3.64944 13.1027 3.57257 13.1027 3.49337 13.1027C3.45494 12.9297 3.4165 12.7568 3.3769 12.5786C3.28082 12.5786 3.18473 12.5786 3.08573 12.5786C3.08221 12.5259 3.07868 12.4733 3.07504 12.4191C3.07016 12.3504 3.06528 12.2817 3.06026 12.211C3.05553 12.1427 3.0508 12.0745 3.04592 12.0042C3.03409 11.82 3.03409 11.82 2.96926 11.6468C2.91161 11.6276 2.85396 11.6084 2.79456 11.5886C2.76574 11.6462 2.76574 11.6462 2.73633 11.7051C2.73633 10.4367 2.73633 9.16837 2.73633 7.8616C2.8132 7.90003 2.89007 7.93847 2.96926 7.97806C3.03065 7.7939 3.04571 7.63626 3.06026 7.44304C3.06514 7.37976 3.07001 7.31647 3.07504 7.25127C3.07857 7.20286 3.0821 7.15444 3.08573 7.10455C3.22986 7.07573 3.22986 7.07573 3.3769 7.04632C3.38546 6.99159 3.38546 6.99159 3.39419 6.93576C3.4029 6.88817 3.41161 6.84058 3.42058 6.79154C3.42869 6.74425 3.43679 6.69696 3.44515 6.64823C3.50728 6.48586 3.57361 6.47732 3.72631 6.40574C3.80197 6.19925 3.80197 6.19925 3.84278 5.9981C3.98691 5.96928 3.98691 5.96928 4.13395 5.93987C4.15317 5.82456 4.17238 5.70926 4.19218 5.59046C4.28827 5.57125 4.38436 5.55203 4.48335 5.53223C4.50257 5.43614 4.52179 5.34006 4.54159 5.24106C4.63767 5.24106 4.73376 5.24106 4.83276 5.24106C4.84357 5.19662 4.85438 5.15218 4.86552 5.10639C4.98214 4.88835 5.13324 4.86703 5.35687 4.77518C5.37473 4.73592 5.3926 4.69666 5.41101 4.65621C5.44186 4.5998 5.44186 4.5998 5.47334 4.54225C5.59936 4.50676 5.59936 4.50676 5.74267 4.49857C5.79026 4.49527 5.83785 4.49197 5.88689 4.48856C5.92337 4.48706 5.95985 4.48556 5.99744 4.48401C5.99744 4.38793 5.99744 4.29184 5.99744 4.19284C6.06906 4.18755 6.06906 4.18755 6.14212 4.18215C6.20487 4.17727 6.26763 4.17239 6.33229 4.16736C6.39445 4.16264 6.4566 4.15791 6.52064 4.15303C6.66346 4.13805 6.79171 4.11608 6.92919 4.07637C6.90036 3.96107 6.90036 3.96107 6.87096 3.84344C7.00882 3.7745 7.09137 3.77785 7.24517 3.77771ZM8.21034 7.10455C8.17191 7.18142 8.13347 7.25829 8.09387 7.33749C8.1227 7.36631 8.1227 7.36631 8.15211 7.39572C8.1148 7.3937 8.07749 7.39167 8.03905 7.38958C7.69815 7.37891 7.45924 7.39711 7.16213 7.57043C7.12151 7.64715 7.08237 7.7247 7.04566 7.80336C6.89279 7.84704 6.89279 7.84704 6.75449 7.8616C6.74007 7.91685 6.72566 7.9721 6.71081 8.02902C6.63802 8.211 6.63802 8.211 6.51791 8.28015C6.48068 8.29577 6.44344 8.31138 6.40508 8.32747C6.34072 8.52054 6.32815 8.68876 6.31409 8.89161C6.30921 8.9603 6.30433 9.02899 6.29931 9.09976C6.29578 9.15238 6.29225 9.205 6.28861 9.25922C6.21174 9.25922 6.13488 9.25922 6.05568 9.25922C5.94853 9.6381 5.96403 10.0003 6.11391 10.3657C6.17156 10.3657 6.22921 10.3657 6.28861 10.3657C6.29079 10.4127 6.29297 10.4598 6.29521 10.5083C6.30095 10.6016 6.30095 10.6016 6.30681 10.6969C6.31188 10.7891 6.31188 10.7891 6.31705 10.8832C6.34958 11.0811 6.40079 11.1964 6.52155 11.3556C6.5792 11.3749 6.63685 11.3941 6.69625 11.4139C6.76541 11.5922 6.76541 11.5922 6.81272 11.7633C6.86797 11.7669 6.92322 11.7705 6.98014 11.7742C7.0402 11.7898 7.10025 11.8054 7.16213 11.8215C7.23492 11.9671 7.23492 11.9671 7.2786 12.1127C7.45106 12.1989 7.6184 12.1915 7.80998 12.2037C7.92191 12.211 7.92191 12.211 8.03609 12.2185C8.0936 12.222 8.1511 12.2255 8.21034 12.2292C8.21034 12.306 8.21034 12.3829 8.21034 12.4621C8.4858 12.5318 8.75486 12.5304 9.03707 12.5323C9.11722 12.5332 9.11722 12.5332 9.19899 12.534C9.37512 12.5359 9.55125 12.5373 9.72739 12.5388C9.8497 12.54 9.97201 12.5412 10.0943 12.5424C10.4159 12.5456 10.7375 12.5485 11.0591 12.5513C11.3873 12.5543 11.7156 12.5575 12.0439 12.5607C12.6878 12.567 13.3317 12.5729 13.9755 12.5786C14.0435 12.3121 14.0394 12.0513 14.035 11.7786C14.0345 11.7272 14.0339 11.6758 14.0333 11.6228C14.0314 11.4569 14.0291 11.2911 14.0267 11.1252C14.0255 11.0226 14.0243 10.92 14.0231 10.8174C14.0185 10.4375 14.0133 10.0576 14.0083 9.67777C13.9975 8.82861 13.9867 7.97945 13.9755 7.10455C12.073 7.10455 10.1705 7.10455 8.21034 7.10455ZM17.6443 7.22102C17.6443 7.29789 17.6443 7.37476 17.6443 7.45396C17.5482 7.47317 17.4521 7.49239 17.3531 7.51219C17.3686 7.62778 17.3686 7.62778 17.4113 7.74513C17.469 7.76434 17.5266 7.78356 17.586 7.80336C17.586 9.24466 17.586 10.686 17.586 12.1709C17.4707 12.1998 17.4707 12.1998 17.3531 12.2292C17.3187 12.3425 17.3187 12.3425 17.2949 12.4621C17.4063 12.5735 17.6077 12.5305 17.7553 12.5323C17.7973 12.5329 17.8394 12.5334 17.8827 12.534C18.0223 12.5359 18.1619 12.5373 18.3015 12.5388C18.398 12.54 18.4945 12.5412 18.5911 12.5424C18.8456 12.5456 19.1002 12.5485 19.3548 12.5513C19.6143 12.5542 19.8739 12.5575 20.1335 12.5607C20.6431 12.567 21.1528 12.5729 21.6624 12.5786C21.6624 12.6554 21.6624 12.7323 21.6624 12.8115C21.9057 12.9042 22.101 12.9404 22.3613 12.928C22.3805 13.0241 22.3997 13.1201 22.4195 13.2191C22.4651 13.2239 22.5108 13.2287 22.5578 13.2337C22.6082 13.2481 22.6587 13.2625 22.7107 13.2774C22.7725 13.3902 22.7725 13.3902 22.8271 13.5103C22.8848 13.5373 22.8848 13.5373 22.9436 13.5649C23.1037 13.65 23.1234 13.7498 23.1765 13.918C23.2534 13.918 23.3303 13.918 23.4095 13.918C23.4041 14.0116 23.4041 14.0116 23.3985 14.1072C23.4098 14.3319 23.4326 14.4006 23.5842 14.5585C23.661 14.5393 23.7379 14.5201 23.8171 14.5003C23.8171 31.5845 23.8171 48.6686 23.8171 66.2705C23.894 66.2321 23.9708 66.1936 24.05 66.154C24.0693 66.0964 24.0885 66.0387 24.1083 65.9793C24.1644 65.9765 24.2206 65.9736 24.2784 65.9707C24.352 65.9663 24.4256 65.962 24.5014 65.9575C24.5743 65.9534 24.6473 65.9494 24.7225 65.9452C24.9008 65.9238 25.0062 65.898 25.1565 65.8046C25.1373 65.747 25.1181 65.6893 25.0983 65.6299C25.1492 65.63 25.2001 65.6302 25.2526 65.6303C25.7317 65.6315 26.2107 65.6324 26.6897 65.6329C26.936 65.6332 27.1823 65.6336 27.4286 65.6343C27.6661 65.6349 27.9036 65.6353 28.1411 65.6354C28.2319 65.6355 28.3228 65.6358 28.4136 65.6361C28.5403 65.6365 28.6671 65.6365 28.7938 65.6365C28.8661 65.6367 28.9384 65.6368 29.0129 65.6369C29.1693 65.6484 29.1693 65.6484 29.2329 65.5717C29.2386 65.4626 29.2402 65.3533 29.2403 65.2441C29.2405 65.1365 29.2405 65.1365 29.2407 65.0267C29.2406 64.9459 29.2405 64.8651 29.2404 64.7843C29.2405 64.6991 29.2406 64.6138 29.2407 64.5285C29.241 64.292 29.2409 64.0556 29.2407 63.8191C29.2406 63.5626 29.2409 63.3062 29.2411 63.0497C29.2414 62.5995 29.2415 62.1493 29.2414 61.6991C29.2413 61.0296 29.2415 60.3601 29.2419 59.6906C29.2424 58.4254 29.2426 57.1601 29.2426 55.8949C29.2426 54.9179 29.2428 53.9408 29.2429 52.9637C29.243 52.6828 29.243 52.402 29.2431 52.1211C29.2431 52.0512 29.2431 51.9814 29.2431 51.9095C29.2435 49.9442 29.2437 47.979 29.2437 46.0137C29.2437 45.9395 29.2437 45.8654 29.2437 45.789C29.2437 45.4131 29.2437 45.0372 29.2437 44.6612C29.2437 44.5866 29.2437 44.5119 29.2437 44.435C29.2437 44.284 29.2437 44.133 29.2437 43.9821C29.2436 41.6337 29.2441 39.2853 29.2449 36.9369C29.2458 34.3003 29.2463 31.6638 29.2462 29.0272C29.2462 28.7461 29.2462 28.465 29.2462 28.1839C29.2462 28.1147 29.2462 28.0455 29.2462 27.9742C29.2462 26.8595 29.2466 25.7448 29.2471 24.6301C29.2476 23.5098 29.2476 22.3895 29.2472 21.2692C29.247 20.6034 29.2471 19.9376 29.2477 19.2719C29.2481 18.8272 29.248 18.3825 29.2476 17.9378C29.2473 17.6844 29.2473 17.431 29.2478 17.1776C29.2482 16.9468 29.2481 16.716 29.2475 16.4853C29.2474 16.4025 29.2475 16.3198 29.2478 16.237C29.2496 15.7428 29.2153 15.2761 29.1164 14.7915C29.078 14.7915 29.0395 14.7915 28.9999 14.7915C28.9807 14.8491 28.9615 14.9068 28.9417 14.9662C28.9406 14.9162 28.9394 14.8663 28.9382 14.8148C28.9337 14.629 28.9286 14.4432 28.9232 14.2574C28.921 14.1771 28.919 14.0968 28.9171 14.0165C28.9145 13.9008 28.911 13.7852 28.9076 13.6695C28.9058 13.6 28.9039 13.5305 28.902 13.4588C28.8846 13.2886 28.8558 13.1884 28.767 13.0444C28.7094 13.0637 28.6517 13.0829 28.5923 13.1027C28.5539 12.8144 28.5154 12.5262 28.4758 12.2292C28.399 12.2099 28.3221 12.1907 28.2429 12.1709C28.1853 11.8538 28.1853 11.8538 28.1264 11.5303C28.0303 11.5111 27.9343 11.4919 27.8353 11.4721C27.8377 11.4193 27.8401 11.3664 27.8425 11.312C27.8354 11.1264 27.8253 11.0388 27.7188 10.8898C27.6611 10.8646 27.6611 10.8646 27.6023 10.8388C27.4859 10.7733 27.4859 10.7733 27.4131 10.5913C27.3987 10.5361 27.3842 10.4808 27.3694 10.4239C27.2733 10.4047 27.1772 10.3855 27.0782 10.3657C27.0782 10.2696 27.0782 10.1735 27.0782 10.0745C27.0242 10.0475 27.0242 10.0475 26.969 10.0199C26.889 9.97986 26.8089 9.93983 26.7288 9.89979C26.7071 9.82275 26.6877 9.74504 26.6706 9.66686C26.6085 9.59136 26.6085 9.59136 26.4631 9.60498C26.4163 9.60618 26.3694 9.60738 26.3212 9.60862C26.3224 9.56178 26.3236 9.51494 26.3248 9.46668C26.3384 9.32132 26.3384 9.32132 26.2629 9.25922C26.1465 9.25684 26.03 9.25674 25.9135 9.25922C25.9135 9.16313 25.9135 9.06704 25.9135 8.96805C25.8511 8.94402 25.7886 8.92 25.7243 8.89525C25.5732 8.83182 25.5045 8.79186 25.3894 8.6696C25.2273 8.51756 25.0818 8.51883 24.8653 8.50217C24.8535 8.45571 24.8416 8.40924 24.8294 8.36136C24.7623 8.19447 24.7623 8.19447 24.5846 8.15709C24.5211 8.14966 24.4576 8.14223 24.3922 8.13457C24.3284 8.12639 24.2646 8.1182 24.1988 8.10977C24.1497 8.10474 24.1006 8.09971 24.05 8.09453C24.0693 8.0561 24.0885 8.01766 24.1083 7.97806C24.063 7.85418 24.063 7.85418 23.9563 7.82725C23.7696 7.7952 23.584 7.78286 23.3949 7.77061C23.3213 7.76573 23.2478 7.76085 23.172 7.75582C23.1158 7.75229 23.0597 7.74876 23.0018 7.74513C23.0018 7.66826 23.0018 7.59139 23.0018 7.51219C22.77 7.43638 22.5345 7.4438 22.2934 7.442C22.2218 7.44114 22.2218 7.44114 22.1487 7.44025C21.9912 7.43842 21.8336 7.43697 21.6761 7.43553C21.5667 7.43433 21.4574 7.43311 21.3481 7.43186C21.0605 7.42865 20.7729 7.42577 20.4853 7.42296C20.1918 7.42004 19.8982 7.41679 19.6047 7.41358C19.0289 7.40732 18.453 7.40141 17.8772 7.39572C17.858 7.33807 17.8388 7.28042 17.819 7.22102C17.7613 7.22102 17.7037 7.22102 17.6443 7.22102ZM15.9555 15.9561C15.9555 15.9754 15.9555 15.9946 15.9555 16.0144C16.3975 16.0144 16.8395 16.0144 17.2949 16.0144C17.2949 15.9952 17.2949 15.9759 17.2949 15.9561C16.8529 15.9561 16.4109 15.9561 15.9555 15.9561ZM38.3174 24.5166C38.3117 24.6304 38.3102 24.7444 38.3103 24.8584C38.3101 24.9332 38.31 25.008 38.3099 25.085C38.3101 25.169 38.3102 25.2531 38.3104 25.3371C38.3104 25.4256 38.3103 25.514 38.3103 25.6025C38.3101 25.8467 38.3104 26.0909 38.3107 26.3351C38.3109 26.598 38.3108 26.8609 38.3108 27.1238C38.3108 27.5797 38.3109 28.0356 38.3113 28.4915C38.3117 29.1507 38.3119 29.8098 38.312 30.469C38.3121 31.5383 38.3125 32.6076 38.313 33.6769C38.3136 34.716 38.314 35.755 38.3142 36.794C38.3142 36.858 38.3143 36.922 38.3143 36.9879C38.3143 37.309 38.3144 37.63 38.3145 37.951C38.3151 40.6163 38.3161 43.2815 38.3174 45.9468C38.5195 45.9925 38.7058 46.0123 38.9129 46.0122C39.0037 46.0124 39.0037 46.0124 39.0965 46.0126C39.1628 46.0125 39.2291 46.0123 39.2974 46.0122C39.4038 46.0123 39.4038 46.0123 39.5124 46.0124C39.7099 46.0125 39.9075 46.0124 40.1051 46.0121C40.3198 46.0119 40.5344 46.012 40.7491 46.0121C41.1256 46.0123 41.5021 46.0122 41.8785 46.0119C42.4383 46.0116 42.9981 46.0116 43.5579 46.0116C44.4996 46.0117 45.4412 46.0115 46.3828 46.0111C47.3154 46.0108 48.2479 46.0106 49.1805 46.0105C49.2674 46.0105 49.2674 46.0105 49.3561 46.0105C49.6504 46.0105 49.9446 46.0105 50.2389 46.0104C52.3241 46.0103 54.4094 46.0099 56.4946 46.0094C58.5206 46.0089 60.5466 46.0084 62.5727 46.0082C62.6351 46.0082 62.6975 46.0082 62.7618 46.0082C63.3888 46.0081 64.0157 46.008 64.6427 46.0079C65.9199 46.0078 67.1971 46.0076 68.4743 46.0075C68.5331 46.0074 68.5918 46.0074 68.6523 46.0074C72.5751 46.0069 76.4979 46.006 80.4207 46.005C80.4683 45.7812 80.4863 45.5774 80.4863 45.3482C80.4864 45.274 80.4866 45.1999 80.4868 45.1235C80.4866 45.0414 80.4865 44.9592 80.4864 44.8771C80.4864 44.7897 80.4865 44.7023 80.4866 44.615C80.4869 44.3748 80.4868 44.1347 80.4866 43.8946C80.4864 43.6356 80.4867 43.3767 80.4868 43.1178C80.4871 42.6105 80.487 42.1033 80.4869 41.5961C80.4867 41.184 80.4867 40.7719 80.4868 40.3599C80.4868 40.3013 80.4868 40.2427 80.4868 40.1823C80.4868 40.0633 80.4868 39.9442 80.4869 39.8252C80.487 38.7087 80.4868 37.5922 80.4865 36.4757C80.4862 35.5169 80.4863 34.558 80.4866 33.5992C80.4869 32.4864 80.487 31.3737 80.4868 30.261C80.4868 30.1425 80.4868 30.0239 80.4868 29.9054C80.4868 29.8471 80.4867 29.7887 80.4867 29.7286C80.4867 29.3168 80.4868 28.9049 80.4869 28.4931C80.4871 27.9916 80.487 27.4901 80.4867 26.9886C80.4866 26.7325 80.4865 26.4765 80.4867 26.2204C80.4869 25.9863 80.4868 25.7523 80.4865 25.5182C80.4864 25.4332 80.4864 25.3482 80.4866 25.2632C80.4868 25.1483 80.4865 25.0334 80.4863 24.9185C80.4863 24.8224 80.4863 24.8224 80.4863 24.7245C80.4891 24.5755 80.4891 24.5755 80.4207 24.4583C76.4131 24.4573 72.4055 24.4564 68.3979 24.4559C68.3386 24.4559 68.2793 24.4559 68.2183 24.4558C66.9305 24.4557 65.6426 24.4555 64.3548 24.4554C63.7233 24.4553 63.0918 24.4552 62.4603 24.4551C62.3975 24.4551 62.3347 24.4551 62.2699 24.4551C60.2311 24.4549 58.1922 24.4544 56.1533 24.4539C54.0591 24.4533 51.9648 24.453 49.8705 24.4529C49.5751 24.4529 49.2796 24.4528 48.9842 24.4528C48.926 24.4528 48.8679 24.4528 48.808 24.4528C47.8699 24.4527 46.9319 24.4525 45.9938 24.4521C45.052 24.4518 44.1101 24.4516 43.1683 24.4517C42.6079 24.4518 42.0476 24.4517 41.4872 24.4513C41.1136 24.4511 40.74 24.4511 40.3665 24.4512C40.1531 24.4513 39.9398 24.4513 39.7265 24.4511C39.4975 24.4508 39.2685 24.451 39.0395 24.4512C38.9722 24.451 38.9048 24.4509 38.8355 24.4507C38.7751 24.4508 38.7147 24.451 38.6525 24.4511C38.6 24.4511 38.5476 24.4511 38.4935 24.4511C38.3759 24.4453 38.3759 24.4453 38.3174 24.5166ZM38.3757 49.4408C38.296 49.6001 38.3097 49.7266 38.3092 49.9051C38.3088 49.9797 38.3085 50.0543 38.3081 50.1311C38.308 50.2147 38.3079 50.2983 38.3078 50.3819C38.3075 50.47 38.3072 50.5582 38.3068 50.6464C38.3059 50.8896 38.3054 51.1327 38.3049 51.3759C38.3043 51.6379 38.3034 51.8998 38.3025 52.1617C38.3008 52.6751 38.2995 53.1886 38.2983 53.702C38.2973 54.1192 38.2961 54.5363 38.2949 54.9534C38.2948 55.0127 38.2946 55.0719 38.2944 55.133C38.2941 55.2534 38.2937 55.3738 38.2934 55.4941C38.2901 56.6241 38.2872 57.7541 38.2845 58.8841C38.2821 59.8547 38.2794 60.8252 38.2765 61.7958C38.2731 62.9216 38.2699 64.0474 38.267 65.1732C38.2667 65.2932 38.2664 65.4131 38.2661 65.5331C38.2659 65.5921 38.2658 65.6511 38.2656 65.7119C38.2645 66.1288 38.2633 66.5456 38.262 66.9625C38.2605 67.4701 38.2591 67.9778 38.2581 68.4855C38.2575 68.7447 38.2569 69.004 38.256 69.2632C38.2551 69.5002 38.2546 69.7372 38.2543 69.9742C38.2541 70.0603 38.2538 70.1463 38.2534 70.2324C38.2529 70.3487 38.2528 70.4651 38.2528 70.5814C38.2526 70.6463 38.2524 70.7111 38.2523 70.7779C38.2489 70.9283 38.2489 70.9283 38.3174 71.0457C52.2115 71.0457 66.1056 71.0457 80.4207 71.0457C80.4678 70.8102 80.4864 70.6257 80.4866 70.389C80.4868 70.3149 80.4871 70.2408 80.4873 70.1645C80.4873 70.0824 80.4872 70.0003 80.4871 69.9182C80.4873 69.8308 80.4875 69.7435 80.4877 69.6562C80.4881 69.4162 80.4883 69.1762 80.4883 68.9361C80.4884 68.6773 80.4888 68.4185 80.4892 68.1597C80.49 67.5938 80.4904 67.028 80.4906 66.4622C80.4908 66.109 80.491 65.7559 80.4913 65.4028C80.492 64.4256 80.4926 63.4483 80.4928 62.4711C80.4928 62.3773 80.4928 62.3773 80.4929 62.2816C80.4929 62.2189 80.4929 62.1562 80.4929 62.0917C80.4929 61.9646 80.4929 61.8376 80.493 61.7106C80.493 61.6161 80.493 61.6161 80.493 61.5197C80.4932 60.4976 80.4943 59.4755 80.4956 58.4534C80.497 57.4047 80.4977 56.3559 80.4978 55.3072C80.4978 54.7181 80.4982 54.129 80.4992 53.5399C80.5001 53.0386 80.5004 52.5373 80.4999 52.0359C80.4997 51.78 80.4998 51.524 80.5006 51.2681C80.5013 51.034 80.5013 50.8 80.5006 50.5659C80.5004 50.481 80.5006 50.3961 80.5011 50.3112C80.5018 50.1962 80.5012 50.0813 80.5006 49.9663C80.5007 49.9023 80.5007 49.8383 80.5007 49.7724C80.4765 49.5979 80.4422 49.5458 80.3043 49.4408C80.2625 49.4597 80.2206 49.4786 80.1776 49.4981C80.0088 49.5588 79.8894 49.5718 79.7111 49.5717C79.651 49.572 79.5909 49.5723 79.529 49.5725C79.4304 49.5721 79.4304 49.5721 79.3297 49.5716C79.2594 49.5717 79.1891 49.5719 79.1166 49.572C78.9207 49.5723 78.7247 49.572 78.5288 49.5715C78.3159 49.5711 78.1031 49.5714 77.8902 49.5716C77.5168 49.5718 77.1435 49.5716 76.7702 49.5712C76.2151 49.5705 75.6599 49.5704 75.1048 49.5705C74.1711 49.5707 73.2373 49.5703 72.3036 49.5696C71.3788 49.5689 70.4541 49.5685 69.5293 49.5683C69.4719 49.5683 69.4144 49.5683 69.3552 49.5683C69.0634 49.5683 68.7716 49.5682 68.4798 49.5682C66.412 49.5679 64.3441 49.5672 62.2763 49.5661C60.2673 49.565 58.2582 49.5642 56.2492 49.5637C56.1872 49.5637 56.1253 49.5636 56.0616 49.5636C55.4398 49.5635 54.8181 49.5633 54.1964 49.5632C52.9299 49.5629 51.6634 49.5626 50.3968 49.5622C50.3386 49.5622 50.2803 49.5622 50.2203 49.5622C46.3304 49.5611 42.4404 49.5592 38.5504 49.5573C38.5504 49.5188 38.5504 49.4804 38.5504 49.4408C38.4927 49.4408 38.4351 49.4408 38.3757 49.4408ZM26.6176 68.9796C26.5966 69.008 26.5757 69.0364 26.5541 69.0657C26.5733 69.0849 26.5925 69.1042 26.6123 69.124C26.5434 69.1275 26.4745 69.131 26.4035 69.1347C25.6107 69.1067 25.6107 69.1067 24.9236 69.2987C24.9212 69.3957 24.9211 69.4928 24.9236 69.5898C24.8667 69.5885 24.8099 69.5871 24.7514 69.5857C24.6773 69.5847 24.6032 69.5836 24.5268 69.5826C24.4532 69.5812 24.3796 69.5799 24.3037 69.5785C24.1005 69.5738 24.1005 69.5738 23.9336 69.7063C23.9624 69.8216 23.9624 69.8216 23.9918 69.9392C23.9525 69.9359 23.9131 69.9325 23.8726 69.929C23.714 69.921 23.5671 69.9185 23.4095 69.9392C23.2828 70.0757 23.2828 70.0757 23.1765 70.2304C23.0214 70.2905 22.8754 70.3167 22.7107 70.3469C22.7107 70.443 22.7107 70.5391 22.7107 70.6381C22.6296 70.6326 22.6296 70.6326 22.5469 70.6271C22.3637 70.621 22.3637 70.621 22.2521 70.7181C22.1755 70.8095 22.1755 70.8095 22.1865 70.9292C22.1541 70.9424 22.1217 70.9556 22.0883 70.9693C21.9159 71.0671 21.8008 71.1952 21.6624 71.3369C21.6072 71.3813 21.5519 71.4257 21.495 71.4715C21.1955 71.7181 20.8875 71.9827 20.8472 72.3851C20.8664 72.4235 20.8856 72.4619 20.9054 72.5015C20.8694 72.4907 20.8333 72.4799 20.7962 72.4688C20.67 72.4295 20.67 72.4295 20.556 72.5015C20.5289 72.6119 20.5289 72.6119 20.5196 72.7381C20.5124 72.8138 20.5052 72.8895 20.4978 72.9674C20.4509 72.9842 20.4041 73.001 20.3558 73.0184C20.1989 73.0683 20.1989 73.0683 20.1484 73.2004C20.1353 73.2898 20.1246 73.3797 20.1156 73.4697C20.1107 73.5173 20.1058 73.5649 20.1008 73.6139C20.0955 73.6686 20.0955 73.6686 20.0901 73.7245C20.0132 73.7245 19.9364 73.7245 19.8572 73.7245C19.7928 73.9175 19.7802 74.0858 19.7662 74.2886C19.7613 74.3573 19.7564 74.426 19.7514 74.4967C19.7479 74.5494 19.7443 74.602 19.7407 74.6562C19.6638 74.6562 19.587 74.6562 19.5078 74.6562C19.4044 74.7596 19.4359 74.9112 19.4311 75.0513C19.4287 75.1195 19.4262 75.1876 19.4237 75.2578C19.4203 75.3654 19.4203 75.3654 19.4168 75.4751C19.413 75.5831 19.413 75.5831 19.4092 75.6932C19.403 75.8716 19.397 76.0501 19.3913 76.2285C19.3337 76.1901 19.276 76.1517 19.2166 76.1121C19.095 76.3604 19.084 76.5854 19.0867 76.8566C19.0867 76.8996 19.0868 76.9426 19.0868 76.9869C19.087 77.0773 19.0874 77.1678 19.0882 77.2583C19.0892 77.3966 19.0893 77.5349 19.0893 77.6731C19.0896 77.7613 19.09 77.8494 19.0904 77.9376C19.0904 77.9788 19.0905 78.02 19.0906 78.0624C19.0924 78.2551 19.0991 78.4318 19.1584 78.6161C19.2352 78.5969 19.3121 78.5777 19.3913 78.5579C19.4105 79.0576 19.4297 79.5572 19.4495 80.072C19.5456 80.0912 19.6417 80.1104 19.7407 80.1302C19.745 80.2092 19.745 80.2092 19.7494 80.2897C19.7537 80.3584 19.7581 80.4271 19.7626 80.4978C19.7666 80.5661 19.7707 80.6343 19.7748 80.7046C19.7865 80.8964 19.7865 80.8964 19.9154 81.062C19.9731 81.062 20.0307 81.062 20.0901 81.062C20.1017 81.123 20.1017 81.123 20.1135 81.1853C20.1238 81.2383 20.1341 81.2913 20.1447 81.3459C20.1548 81.3986 20.165 81.4513 20.1754 81.5056C20.2007 81.6443 20.2007 81.6443 20.2648 81.7608C20.3225 81.7806 20.3225 81.7806 20.3813 81.8008C20.4197 81.826 20.4582 81.8513 20.4978 81.8772C20.5414 82.0883 20.5414 82.0883 20.556 82.2849C20.6521 82.3041 20.7482 82.3233 20.8472 82.3431C20.8484 82.3924 20.8496 82.4416 20.8508 82.4923C20.9281 82.7757 21.0999 82.9074 21.313 83.1002C21.8954 83.6825 21.8954 83.6825 22.0446 83.8354C22.2188 84.0097 22.2188 84.0097 22.4195 84.1484C22.5766 84.1355 22.5766 84.1355 22.7107 84.0901C22.7107 84.2055 22.7107 84.3208 22.7107 84.4396C22.8836 84.4588 23.0566 84.478 23.2348 84.4978C23.254 84.5747 23.2732 84.6515 23.293 84.7307C23.4619 84.8433 23.5199 84.8647 23.7116 84.8836C23.7848 84.8908 23.8581 84.898 23.9336 84.9054C23.9396 84.9427 23.9456 84.9799 23.9518 85.0183C23.9716 85.0777 23.9716 85.0777 23.9918 85.1384C24.176 85.1998 24.3336 85.2148 24.5268 85.2294C24.6218 85.2367 24.6218 85.2367 24.7186 85.2441C24.767 85.2477 24.8154 85.2512 24.8653 85.2548C24.8737 85.2921 24.8821 85.3293 24.8908 85.3677C24.9125 85.4863 24.9125 85.4863 24.9818 85.546C25.0981 85.5552 25.2148 85.5606 25.3314 85.5644C25.4022 85.5669 25.4729 85.5693 25.5458 85.5718C25.6576 85.5753 25.6576 85.5753 25.7716 85.5788C25.8463 85.5813 25.9211 85.5838 25.998 85.5864C26.1834 85.5926 26.3687 85.5985 26.5541 85.6042C26.5157 85.6235 26.4772 85.6427 26.4376 85.6625C26.4665 85.7489 26.4665 85.7489 26.4959 85.8372C26.7847 85.9553 27.1427 85.9062 27.4487 85.9062C27.5651 85.9063 27.6815 85.9074 27.798 85.9085C27.909 85.9087 27.909 85.9087 28.0223 85.9088C28.0897 85.9091 28.1571 85.9093 28.2266 85.9096C28.4242 85.8949 28.5826 85.8495 28.767 85.7789C28.767 85.7405 28.767 85.7021 28.767 85.6625C28.7094 85.6433 28.6517 85.624 28.5923 85.6042C28.639 85.6031 28.6857 85.6019 28.7339 85.6007C28.9451 85.5952 29.1563 85.5888 29.3676 85.5824C29.4778 85.5797 29.4778 85.5797 29.5904 85.5769C29.6607 85.5747 29.7311 85.5724 29.8036 85.5701C29.9011 85.5674 29.9011 85.5674 30.0005 85.5646C30.1765 85.5573 30.1765 85.5573 30.3393 85.4295C30.3201 85.3719 30.3009 85.3142 30.2811 85.2548C30.333 85.2533 30.385 85.2518 30.4385 85.2503C30.5067 85.247 30.5748 85.2437 30.6451 85.2403C30.7126 85.2376 30.7802 85.2349 30.8498 85.2321C31.0653 85.1915 31.1355 85.1315 31.2711 84.9637C31.2519 84.9444 31.2326 84.9252 31.2128 84.9054C31.2487 84.9026 31.2845 84.8997 31.3214 84.8968C31.3684 84.8924 31.4155 84.8881 31.464 84.8836C31.5106 84.8795 31.5572 84.8755 31.6052 84.8713C31.7528 84.8533 31.7528 84.8533 31.9117 84.7307C31.9309 84.6731 31.9501 84.6154 31.9699 84.556C32.0902 84.5007 32.0902 84.5007 32.2356 84.4578C32.2837 84.4431 32.3318 84.4285 32.3814 84.4134C32.4371 84.3975 32.4371 84.3975 32.494 84.3813C32.494 84.2852 32.494 84.1891 32.494 84.0901C32.5901 84.1094 32.6862 84.1286 32.7852 84.1484C32.8176 84.1039 32.85 84.0595 32.8834 84.0137C33.0181 83.8572 33.0181 83.8572 33.1496 83.7817C33.3508 83.6567 33.504 83.5048 33.6696 83.3367C33.7162 83.2909 33.7162 83.2909 33.7637 83.244C33.918 83.0889 34.0349 82.9502 34.1246 82.7508C34.1654 82.7231 34.2062 82.6955 34.2483 82.6671C34.3754 82.5829 34.3754 82.5829 34.3721 82.4196C34.3672 82.3751 34.3624 82.3307 34.3575 82.2849C34.4536 82.2657 34.5497 82.2465 34.6487 82.2267C34.6871 82.0345 34.7255 81.8423 34.7651 81.6443C34.842 81.6251 34.9189 81.6059 34.9981 81.5861C35.0949 81.4892 35.0773 81.3658 35.0891 81.233C35.0939 81.1795 35.0988 81.126 35.1038 81.0708C35.1074 81.0295 35.1109 80.9881 35.1145 80.9455C35.1518 80.9371 35.189 80.9287 35.2274 80.92C35.346 80.8983 35.346 80.8983 35.4057 80.829C35.4194 80.6922 35.4298 80.555 35.4385 80.4178C35.4433 80.3426 35.4482 80.2675 35.4533 80.1901C35.4568 80.1319 35.4603 80.0737 35.4639 80.0138C35.5408 80.0138 35.6177 80.0138 35.6969 80.0138C35.793 79.6799 35.8273 79.3917 35.817 79.0456C35.8101 78.7577 35.8138 78.4927 35.8716 78.2085C35.9292 78.2085 35.9869 78.2085 36.0463 78.2085C36.0997 77.9366 36.1134 77.6731 36.1118 77.3969C36.112 77.3574 36.1123 77.318 36.1125 77.2773C36.112 77.0184 36.0881 76.7744 36.0463 76.5197C35.9886 76.5197 35.931 76.5197 35.8716 76.5197C35.7918 76.1314 35.7937 75.7377 35.7832 75.3429C35.7812 75.2872 35.7792 75.2315 35.7772 75.1742C35.7757 75.1236 35.7743 75.0731 35.7728 75.021C35.7628 74.8729 35.7628 74.8729 35.6386 74.7144C35.5522 74.7433 35.5522 74.7433 35.4639 74.7727C35.4604 74.7152 35.4569 74.6577 35.4533 74.5984C35.4459 74.4865 35.4459 74.4865 35.4385 74.3723C35.4337 74.298 35.429 74.2237 35.4241 74.1471C35.4178 73.9642 35.4178 73.9642 35.3475 73.8409C35.2706 73.8409 35.1937 73.8409 35.1145 73.8409C35.111 73.8002 35.1075 73.7596 35.1038 73.7176C35.0965 73.6381 35.0965 73.6381 35.0891 73.557C35.0843 73.5043 35.0796 73.4516 35.0747 73.3974C35.0639 73.2579 35.0639 73.2579 34.9981 73.1421C34.8802 73.1041 34.8802 73.1041 34.7651 73.0839C34.7576 73.0292 34.7576 73.0292 34.7499 72.9733C34.7252 72.8296 34.6988 72.6969 34.6487 72.5598C34.5028 72.4888 34.5028 72.4888 34.3575 72.4433C34.3102 72.2613 34.3102 72.2613 34.2993 72.0939C34.2632 72.0903 34.2272 72.0867 34.1901 72.083C34.1492 72.0674 34.1084 72.0518 34.0663 72.0357C34.0522 71.9948 34.0381 71.9538 34.0236 71.9117C33.9204 71.6776 33.7596 71.5288 33.5786 71.3514C33.545 71.3171 33.5114 71.2828 33.4767 71.2475C33.4438 71.2148 33.4109 71.1822 33.3771 71.1485C33.3324 71.1042 33.3324 71.1042 33.2869 71.0589C33.1951 70.9793 33.1951 70.9793 33.0694 70.9576C33.0332 70.9482 32.9971 70.9389 32.9599 70.9292C32.8871 70.78 32.8871 70.78 32.8434 70.6381C32.7281 70.6381 32.6128 70.6381 32.494 70.6381C32.4748 70.542 32.4556 70.4459 32.4358 70.3469C32.3993 70.3419 32.3628 70.3368 32.3252 70.3316C32.2538 70.3194 32.2538 70.3194 32.181 70.3068C32.1337 70.2994 32.0864 70.292 32.0377 70.2843C31.9753 70.2576 31.9753 70.2576 31.9117 70.2304C31.854 70.0863 31.854 70.0863 31.7952 69.9392C31.5838 69.9392 31.3724 69.9392 31.1546 69.9392C31.1738 69.8624 31.193 69.7855 31.2128 69.7063C31.0999 69.5675 31.0999 69.5675 30.8939 69.5785C30.8134 69.5792 30.7329 69.5806 30.6523 69.5826C30.6112 69.5831 30.5701 69.5836 30.5277 69.5841C30.4261 69.5855 30.3245 69.5876 30.2229 69.5898C30.2421 69.4937 30.2613 69.3977 30.2811 69.2987C29.9904 69.1695 29.7336 69.1761 29.4226 69.182C29.1248 69.1823 28.8302 69.1534 28.5341 69.124C28.5341 69.0663 28.5341 69.0087 28.5341 68.9493C28.2882 68.8263 27.9673 68.8778 27.6969 68.877C27.5775 68.8765 27.4582 68.8747 27.3388 68.8728C27.2637 68.8725 27.1886 68.8722 27.1112 68.8719C27.0421 68.8714 26.973 68.8708 26.9018 68.8703C26.728 68.8758 26.728 68.8758 26.6176 68.9796ZM39.0745 74.365C39.0745 74.538 39.0745 74.711 39.0745 74.8891C39.1898 74.9468 39.1898 74.9468 39.3074 75.0056C39.3458 74.9864 39.3843 74.9672 39.4239 74.9474C39.4047 76.4271 39.3854 77.9068 39.3656 79.4314C39.2503 79.4891 39.2503 79.4891 39.1327 79.5479C39.1327 79.6055 39.1327 79.6632 39.1327 79.7226C54.2951 79.7226 69.4576 79.7226 85.0795 79.7226C85.1179 79.6457 85.1563 79.5688 85.1959 79.4896C85.1767 79.4704 85.1575 79.4512 85.1377 79.4314C85.1826 79.4279 85.2275 79.4244 85.2737 79.4207C85.3321 79.4158 85.3905 79.411 85.4507 79.4059C85.5088 79.4012 85.5669 79.3965 85.6268 79.3916C85.7771 79.3819 85.7771 79.3819 85.8948 79.3149C85.8948 79.2189 85.8948 79.1228 85.8948 79.0238C86.0101 79.0238 86.1254 79.0238 86.2442 79.0238C86.249 78.9781 86.2538 78.9325 86.2587 78.8855C86.2731 78.835 86.2875 78.7846 86.3024 78.7326C86.3795 78.6928 86.4572 78.654 86.5353 78.6161C86.6451 78.3978 86.6722 78.1995 86.6882 77.9574C86.6925 77.8951 86.6969 77.8329 86.7014 77.7688C86.7042 77.7217 86.7071 77.6746 86.71 77.6262C86.7677 77.6454 86.8253 77.6646 86.8847 77.6844C87.0549 77.3907 87.042 77.0678 86.9748 76.7406C86.948 76.6466 86.9169 76.5538 86.8847 76.4615C86.7983 76.4903 86.7983 76.4903 86.71 76.5197C86.7106 76.4705 86.7111 76.4212 86.7116 76.3705C86.7005 75.9441 86.6614 75.6934 86.3511 75.3926C86.2982 75.3451 86.2982 75.3451 86.2442 75.2968C86.1937 75.2427 86.1433 75.1887 86.0913 75.133C85.9557 75.0081 85.8196 74.9247 85.6618 74.8309C85.6234 74.7733 85.5849 74.7156 85.5453 74.6562C85.4036 74.6298 85.4036 74.6298 85.2348 74.6345C85.1351 74.6339 85.1351 74.6339 85.0334 74.6333C84.9596 74.6338 84.8858 74.6342 84.8098 74.6347C84.7309 74.6346 84.652 74.6344 84.5731 74.6341C84.3546 74.6336 84.1361 74.6341 83.9176 74.6348C83.6806 74.6354 83.4435 74.635 83.2064 74.6347C82.7904 74.6344 82.3743 74.6347 81.9583 74.6354C81.3396 74.6364 80.721 74.6365 80.1023 74.6363C79.0618 74.6361 78.0213 74.6367 76.9807 74.6377C75.95 74.6388 74.9193 74.6394 73.8886 74.6396C73.8246 74.6396 73.7606 74.6397 73.6946 74.6397C73.3695 74.6397 73.0445 74.6398 72.7194 74.6398C70.4151 74.6402 68.1108 74.6414 65.8065 74.643C63.5674 74.6446 61.3284 74.6459 59.0893 74.6466C59.0204 74.6466 58.9514 74.6467 58.8803 74.6467C58.1876 74.6469 57.4949 74.6471 56.8022 74.6474C55.391 74.6478 53.9798 74.6483 52.5686 74.6488C52.5037 74.6488 52.4388 74.6489 52.372 74.6489C48.0365 74.6505 43.7011 74.6533 39.3656 74.6562C39.3849 74.6178 39.4041 74.5793 39.4239 74.5397C54.1635 74.5397 68.9032 74.5397 84.0895 74.5397C84.0895 74.5013 84.0895 74.4629 84.0895 74.4233C69.2345 74.4041 54.3796 74.3848 39.0745 74.365Z" fill="black"/>
<path d="M44.3158 32.1453C48.8126 32.1453 53.3095 32.1453 57.9426 32.1453C57.9234 32.2221 57.9041 32.299 57.8843 32.3782C57.9173 32.3874 57.9502 32.3967 57.9842 32.4062C58.1133 32.4473 58.2309 32.4884 58.3502 32.5529C58.4084 32.7094 58.4084 32.7094 58.4084 32.8441C58.4853 32.8441 58.5622 32.8441 58.6414 32.8441C58.699 33.1131 58.7567 33.3822 58.8161 33.6594C58.9314 33.5729 58.9314 33.5729 59.049 33.4847C59.049 36.1943 59.049 38.9039 59.049 41.6957C58.9625 41.6092 58.9625 41.6092 58.8743 41.521C58.7522 41.7042 58.7276 41.813 58.6923 42.0269C58.6826 42.0848 58.6728 42.1426 58.6628 42.2023C58.6557 42.2465 58.6486 42.2907 58.6414 42.3362C58.5453 42.3362 58.4492 42.3362 58.3502 42.3362C58.3502 42.4516 58.3502 42.5669 58.3502 42.6857C58.1965 42.7241 58.0427 42.7625 57.8843 42.8021C57.8843 42.879 57.8843 42.9559 57.8843 43.0351C53.4259 43.0351 48.9675 43.0351 44.374 43.0351C44.3932 42.939 44.4124 42.8429 44.4322 42.7439C44.3806 42.7403 44.3289 42.7367 44.2757 42.733C44.0325 42.6733 43.947 42.5887 43.7917 42.3945C43.7152 42.2016 43.7152 42.2016 43.6752 42.0451C43.5983 42.0643 43.5215 42.0835 43.4423 42.1033C43.363 41.9448 43.3765 41.82 43.3762 41.6424C43.376 41.569 43.3757 41.4956 43.3755 41.4199C43.3755 41.3381 43.3755 41.2563 43.3756 41.1745C43.3754 41.0887 43.3752 41.0029 43.375 40.9172C43.3745 40.6837 43.3743 40.4503 43.3743 40.2169C43.3742 40.0223 43.374 39.8276 43.3738 39.633C43.3733 39.1738 43.3732 38.7147 43.3732 38.2556C43.3733 37.7815 43.3727 37.3074 43.3717 36.8333C43.371 36.4267 43.3707 36.0201 43.3707 35.6135C43.3707 35.3704 43.3705 35.1274 43.3699 34.8843C43.3694 34.6558 43.3694 34.4273 43.3698 34.1988C43.3698 34.1148 43.3697 34.0308 43.3694 33.9469C43.3689 33.8324 43.3692 33.718 43.3696 33.6036C43.3696 33.5395 43.3696 33.4754 43.3695 33.4093C43.384 33.2517 43.384 33.2517 43.5005 33.077C43.5581 33.077 43.6158 33.077 43.6752 33.077C43.6866 33.0461 43.698 33.0152 43.7098 32.9833C43.8417 32.6718 43.9687 32.5447 44.2803 32.4128C44.3112 32.4014 44.3421 32.39 44.374 32.3782C44.3548 32.3013 44.3356 32.2245 44.3158 32.1453ZM55.2056 35.5228C55.1795 35.5607 55.1534 35.5985 55.1266 35.6375C55.0309 35.7558 55.0309 35.7558 54.891 35.7848C54.8353 35.7847 54.7796 35.7846 54.7222 35.7846C54.6262 35.7853 54.6262 35.7853 54.5282 35.7861C54.458 35.7854 54.3877 35.7848 54.3154 35.7841C54.2044 35.7844 54.2044 35.7844 54.0912 35.7847C53.8882 35.7853 53.6853 35.7844 53.4823 35.7832C53.2699 35.7822 53.0574 35.7824 52.845 35.7825C52.4881 35.7824 52.1312 35.7813 51.7744 35.7798C51.362 35.7779 50.9496 35.7773 50.5372 35.7774C50.098 35.7775 49.6589 35.7767 49.2198 35.7756C49.0933 35.7753 48.9669 35.7753 48.8404 35.7752C48.6045 35.7751 48.3686 35.7739 48.1328 35.7727C48.0627 35.7728 47.9927 35.7728 47.9206 35.7729C47.8563 35.7724 47.7919 35.7719 47.7256 35.7714C47.6699 35.7712 47.6141 35.771 47.5567 35.7708C47.3897 35.7546 47.2629 35.7087 47.111 35.6393C47.0918 35.6777 47.0726 35.7162 47.0528 35.7558C46.9327 35.7922 46.9327 35.7922 46.8198 35.814C46.8391 35.8909 46.8583 35.9678 46.8781 36.047C46.9357 36.047 46.9934 36.047 47.0528 36.047C47.0336 37.0655 47.0143 38.084 46.9945 39.1334C46.9081 39.1622 46.9081 39.1622 46.8198 39.1916C46.8198 39.2493 46.8198 39.3069 46.8198 39.3663C46.9159 39.3855 47.012 39.4047 47.111 39.4245C47.111 39.463 47.111 39.5014 47.111 39.541C47.1975 39.5122 47.1975 39.5122 47.2857 39.4828C47.3914 39.4775 47.4972 39.4757 47.603 39.4758C47.6689 39.4757 47.7348 39.4756 47.8027 39.4755C47.9112 39.4758 47.9112 39.4758 48.0219 39.4762C48.1361 39.4761 48.1361 39.4761 48.2526 39.4761C48.4614 39.4761 48.6703 39.4765 48.8792 39.4769C49.0974 39.4772 49.3156 39.4773 49.5339 39.4773C49.9472 39.4775 50.3605 39.478 50.7738 39.4786C51.2443 39.4792 51.7148 39.4795 52.1853 39.4798C53.1533 39.4804 54.1212 39.4815 55.0891 39.4828C55.1083 39.5404 55.1275 39.5981 55.1473 39.6575C55.2242 39.6575 55.3011 39.6575 55.3803 39.6575C55.452 39.2668 55.4469 38.8797 55.4462 38.4835C55.4463 38.4099 55.4463 38.3363 55.4464 38.2605C55.4464 38.1054 55.4464 37.9503 55.4461 37.7952C55.4458 37.5971 55.4459 37.3991 55.4463 37.201C55.4466 37.0109 55.4464 36.8209 55.4462 36.6309C55.4464 36.5247 55.4464 36.5247 55.4466 36.4163C55.4464 36.3501 55.4462 36.2838 55.446 36.2155C55.446 36.1575 55.4459 36.0995 55.4459 36.0398C55.4381 35.8635 55.4127 35.6961 55.3803 35.5228C55.3226 35.5228 55.265 35.5228 55.2056 35.5228Z" fill="black"/>
<path d="M44.6242 57.1779C44.7041 57.1781 44.7041 57.1781 44.7855 57.1782C44.8416 57.1781 44.8977 57.178 44.9555 57.1778C45.1449 57.1774 45.3344 57.1775 45.5239 57.1775C45.6591 57.1774 45.7943 57.1772 45.9295 57.177C46.298 57.1764 46.6664 57.1763 47.0348 57.1763C47.3417 57.1762 47.6487 57.176 47.9557 57.1758C48.6381 57.1753 49.3206 57.1752 50.0031 57.1752C50.0441 57.1752 50.0851 57.1752 50.1273 57.1752C50.1683 57.1752 50.2094 57.1752 50.2516 57.1752C50.917 57.1752 51.5823 57.1747 52.2476 57.1739C52.93 57.173 53.6124 57.1726 54.2948 57.1727C54.6782 57.1727 55.0617 57.1725 55.4451 57.1719C55.8055 57.1714 56.1659 57.1713 56.5264 57.1718C56.659 57.1718 56.7917 57.1717 56.9243 57.1713C57.1047 57.1709 57.2851 57.1712 57.4654 57.1716C57.5185 57.1713 57.5716 57.171 57.6263 57.1707C57.9875 57.1727 57.9875 57.1727 58.1173 57.3025C58.0981 57.3601 58.0788 57.4178 58.059 57.4772C58.1293 57.4988 58.1293 57.4988 58.201 57.5209C58.3502 57.5936 58.3502 57.5936 58.3975 57.7174C58.4029 57.7714 58.4029 57.7714 58.4084 57.8266C58.4853 57.8266 58.5622 57.8266 58.6414 57.8266C58.7249 57.9937 58.7247 58.1607 58.7415 58.3452C58.7516 58.4703 58.7516 58.4703 58.8161 58.5836C58.8545 58.5836 58.8929 58.5836 58.9325 58.5836C58.971 58.526 59.0094 58.4683 59.049 58.4089C59.049 61.1186 59.049 63.8282 59.049 66.6199C59.0106 66.6007 58.9721 66.5815 58.9325 66.5617C58.9325 66.5041 58.9325 66.4464 58.9325 66.387C58.8941 66.4062 58.8557 66.4254 58.8161 66.4452C58.7789 66.5927 58.7481 66.7363 58.7214 66.8856C58.7136 66.927 58.7058 66.9684 58.6978 67.0111C58.6785 67.1136 58.6599 67.2162 58.6414 67.3188C58.6053 67.326 58.5693 67.3332 58.5322 67.3406C58.3973 67.3695 58.3973 67.3695 58.292 67.4935C58.2728 67.5703 58.2535 67.6472 58.2337 67.7264C58.0031 67.7648 57.7725 67.8033 57.5349 67.8429C57.5541 67.939 57.5734 68.035 57.5932 68.134C53.3269 68.134 49.0607 68.134 44.6652 68.134C44.6844 68.0572 44.7036 67.9803 44.7234 67.9011C44.6501 67.8831 44.5769 67.8651 44.5014 67.8465C44.3588 67.8114 44.2224 67.7729 44.0828 67.7264C44.0756 67.6892 44.0684 67.6519 44.061 67.6136C44.049 67.5739 44.037 67.5343 44.0246 67.4935C43.9766 67.4754 43.9285 67.4574 43.879 67.4389C43.831 67.4184 43.7829 67.398 43.7334 67.377C43.6861 67.2241 43.6861 67.2241 43.6752 67.0858C43.638 67.0786 43.6007 67.0714 43.5624 67.064C43.5227 67.052 43.4831 67.04 43.4423 67.0276C43.3632 66.8696 43.3765 66.7459 43.3762 66.5689C43.376 66.496 43.3757 66.423 43.3755 66.3479C43.3755 66.2667 43.3755 66.1854 43.3756 66.1042C43.3754 66.0189 43.3752 65.9337 43.375 65.8485C43.3745 65.6166 43.3743 65.3848 43.3743 65.1529C43.3742 64.9596 43.374 64.7662 43.3738 64.5729C43.3733 64.1168 43.3732 63.6608 43.3732 63.2048C43.3733 62.7338 43.3727 62.2629 43.3717 61.792C43.371 61.3881 43.3707 60.9842 43.3707 60.5803C43.3707 60.3389 43.3705 60.0975 43.3699 59.8561C43.3694 59.6291 43.3694 59.4021 43.3698 59.1751C43.3698 59.0917 43.3697 59.0083 43.3694 58.9249C43.3689 58.8112 43.3692 58.6975 43.3696 58.5839C43.3696 58.5202 43.3696 58.4565 43.3695 58.3909C43.384 58.2342 43.384 58.2342 43.5005 58.0595C43.5401 58.0439 43.5798 58.0283 43.6206 58.0122C43.7549 57.9482 43.7549 57.9482 43.7771 57.7611C43.7819 57.7058 43.7867 57.6506 43.7917 57.5936C43.9934 57.5648 43.9934 57.5648 44.1993 57.5354C44.1981 57.4886 44.1969 57.4417 44.1957 57.3935C44.2027 57.1035 44.3761 57.1789 44.6242 57.1779ZM54.794 60.4423C54.6875 60.4429 54.6875 60.4429 54.5789 60.4436C54.5008 60.4443 54.4226 60.4451 54.3445 60.4459C54.2618 60.4464 54.1792 60.447 54.0965 60.4476C53.8725 60.4491 53.6485 60.451 53.4245 60.453C53.1902 60.455 52.956 60.4566 52.7217 60.4583C52.2783 60.4616 51.8349 60.4652 51.3915 60.4689C50.8866 60.473 50.3817 60.4769 49.8769 60.4807C48.8384 60.4885 47.8 60.4968 46.7616 60.5054C46.7808 60.6014 46.8 60.6975 46.8198 60.7965C46.8967 60.7965 46.9736 60.7965 47.0528 60.7965C47.0528 61.9111 47.0528 63.0257 47.0528 64.1741C46.9375 64.2029 46.9375 64.2029 46.8198 64.2323C46.8198 64.3092 46.8198 64.3861 46.8198 64.4653C47.2195 64.5397 47.6168 64.5313 48.0222 64.5301C48.1025 64.5301 48.1829 64.5301 48.2633 64.5302C48.4806 64.5302 48.6978 64.5298 48.9151 64.5294C49.1425 64.5291 49.3699 64.529 49.5973 64.529C50.0275 64.5288 50.4577 64.5283 50.8879 64.5277C51.3779 64.5271 51.8679 64.5267 52.3578 64.5264C53.3653 64.5258 54.3728 64.5248 55.3803 64.5235C55.4287 64.2964 55.4456 64.0898 55.4451 63.8572C55.4451 63.7826 55.4451 63.708 55.4451 63.6311C55.4448 63.5503 55.4445 63.4695 55.4442 63.3886C55.4441 63.3055 55.444 63.2223 55.4439 63.1392C55.4437 62.921 55.4431 62.7028 55.4425 62.4847C55.4419 62.2618 55.4416 62.0389 55.4413 61.816C55.4407 61.3791 55.4397 60.9422 55.4385 60.5054C55.2195 60.4543 55.0186 60.4406 54.794 60.4423Z" fill="black"/>
<path d="M34.707 22.5948C34.7262 22.5948 34.7455 22.5948 34.7653 22.5948C34.7653 37.3922 34.7653 52.1895 34.7653 67.4352C34.746 67.4352 34.7268 67.4352 34.707 67.4352C34.707 52.6379 34.707 37.8406 34.707 22.5948Z" fill="black"/>
<path d="M35.4645 86.6525C35.5414 86.6525 35.6182 86.6525 35.6974 86.6525C35.6782 86.7486 35.659 86.8446 35.6392 86.9436C35.5815 86.9436 35.5239 86.9436 35.4645 86.9436C35.4317 86.8308 35.4317 86.8308 35.4062 86.7107C35.4255 86.6915 35.4447 86.6723 35.4645 86.6525Z" fill="black"/>
<path d="M19.566 86.6525C19.6429 86.6525 19.7198 86.6525 19.799 86.6525C19.7798 86.7486 19.7605 86.8446 19.7407 86.9436C19.6639 86.9244 19.587 86.9052 19.5078 86.8854C19.527 86.8085 19.5462 86.7317 19.566 86.6525Z" fill="black"/>
<path d="M18.1692 85.1967C18.2269 85.2159 18.2845 85.2351 18.3439 85.2549C18.3247 85.3318 18.3055 85.4086 18.2857 85.4878C18.2088 85.4686 18.1319 85.4494 18.0527 85.4296C18.0527 85.3719 18.0527 85.3143 18.0527 85.2549C18.0912 85.2357 18.1296 85.2165 18.1692 85.1967Z" fill="black"/>
<path d="M88.1657 71.8027C88.2425 71.8412 88.3194 71.8796 88.3986 71.9192C88.3794 71.9769 88.3602 72.0345 88.3404 72.0939C88.2635 72.0939 88.1866 72.0939 88.1074 72.0939C88.1266 71.9978 88.1459 71.9017 88.1657 71.8027Z" fill="black"/>
<path d="M83.3906 20.9644C83.4675 20.9644 83.5444 20.9644 83.6236 20.9644C83.6428 21.0412 83.662 21.1181 83.6818 21.1973C83.6049 21.2165 83.5281 21.2357 83.4489 21.2555C83.4296 21.1594 83.4104 21.0634 83.3906 20.9644Z" fill="black"/>
<path d="M36.1641 85.9536C36.2601 85.9536 36.3562 85.9536 36.4552 85.9536C36.436 86.0305 36.4168 86.1074 36.397 86.1866C36.3201 86.1866 36.2433 86.1866 36.1641 86.1866C36.1641 86.1097 36.1641 86.0328 36.1641 85.9536Z" fill="black"/>
<path d="M36.5137 85.6042C36.6098 85.6042 36.7058 85.6042 36.8048 85.6042C36.7856 85.6811 36.7664 85.758 36.7466 85.8372C36.6697 85.8372 36.5929 85.8372 36.5137 85.8372C36.5137 85.7603 36.5137 85.6834 36.5137 85.6042Z" fill="black"/>
<path d="M36.9196 85.1967C37.0397 85.2221 37.0397 85.2221 37.1525 85.2549C37.1525 85.3125 37.1525 85.3702 37.1525 85.4296C37.0756 85.4488 36.9988 85.468 36.9196 85.4878C36.8868 85.375 36.8868 85.375 36.8613 85.2549C36.8805 85.2357 36.8998 85.2165 36.9196 85.1967Z" fill="black"/>
<path d="M33.3688 82.7507C33.4457 82.7507 33.5225 82.7507 33.6017 82.7507C33.6017 82.8276 33.6017 82.9045 33.6017 82.9837C33.5056 82.9837 33.4095 82.9837 33.3105 82.9837C33.3298 82.9068 33.349 82.8299 33.3688 82.7507Z" fill="black"/>
<path d="M21.6637 82.7507C21.7406 82.7507 21.8174 82.7507 21.8966 82.7507C21.8966 82.8276 21.8966 82.9045 21.8966 82.9837C21.8006 82.9837 21.7045 82.9837 21.6055 82.9837C21.6247 82.9068 21.6439 82.8299 21.6637 82.7507Z" fill="black"/>
<path d="M21.3141 82.3431C21.4342 82.3686 21.4342 82.3686 21.547 82.4014C21.547 82.459 21.547 82.5167 21.547 82.5761C21.4702 82.5953 21.3933 82.6145 21.3141 82.6343C21.2813 82.5215 21.2813 82.5215 21.2559 82.4014C21.2751 82.3822 21.2943 82.3629 21.3141 82.3431Z" fill="black"/>
<path d="M22.0117 71.3951C22.0886 71.3951 22.1655 71.3951 22.2447 71.3951C22.2254 71.4912 22.2062 71.5873 22.1864 71.6863C22.1288 71.6863 22.0711 71.6863 22.0117 71.6863C22.0117 71.5902 22.0117 71.4941 22.0117 71.3951Z" fill="black"/>
<path d="M18.111 69.2987C18.1878 69.2987 18.2647 69.2987 18.3439 69.2987C18.3439 69.3756 18.3439 69.4524 18.3439 69.5316C18.2478 69.5316 18.1517 69.5316 18.0527 69.5316C18.072 69.4548 18.0912 69.3779 18.111 69.2987Z" fill="black"/>
<path d="M18.577 68.891C18.6155 68.9102 18.6539 68.9294 18.6935 68.9492C18.6935 69.0261 18.6935 69.103 18.6935 69.1822C18.5974 69.1629 18.5013 69.1437 18.4023 69.1239C18.4216 69.0663 18.4408 69.0086 18.4606 68.9492C18.499 68.93 18.5374 68.9108 18.577 68.891Z" fill="black"/>
<path d="M19.566 67.8428C19.6429 67.8428 19.7198 67.8428 19.799 67.8428C19.799 67.9196 19.799 67.9965 19.799 68.0757C19.7029 68.0757 19.6068 68.0757 19.5078 68.0757C19.527 67.9988 19.5462 67.922 19.566 67.8428Z" fill="black"/>
<path d="M43.5582 32.2035C43.6159 32.2035 43.6735 32.2035 43.7329 32.2035C43.7329 32.2996 43.7329 32.3957 43.7329 32.4947C43.6561 32.4947 43.5792 32.4947 43.5 32.4947C43.5192 32.3986 43.5384 32.3025 43.5582 32.2035Z" fill="black"/>
<path d="M35.1735 20.9644C35.2888 20.9932 35.2888 20.9932 35.4064 21.0226C35.3872 21.0995 35.368 21.1763 35.3482 21.2555C35.2713 21.2363 35.1944 21.2171 35.1152 21.1973C35.1345 21.1204 35.1537 21.0436 35.1735 20.9644Z" fill="black"/>
<path d="M35.8145 86.3031C35.9586 86.3319 35.9586 86.3319 36.1056 86.3613C36.0864 86.419 36.0672 86.4766 36.0474 86.536C35.9897 86.5553 35.9321 86.5745 35.8727 86.5943C35.8535 86.4982 35.8343 86.4021 35.8145 86.3031Z" fill="black"/>
<path d="M85.6617 75.4133C85.7386 75.4133 85.8155 75.4133 85.8947 75.4133C85.8947 75.4902 85.8947 75.5671 85.8947 75.6463C85.7986 75.627 85.7025 75.6078 85.6035 75.588C85.6227 75.5304 85.642 75.4727 85.6617 75.4133Z" fill="black"/>
<path d="M89.5645 73.3169C89.7086 73.3457 89.7086 73.3457 89.8556 73.3751C89.8364 73.4328 89.8172 73.4904 89.7974 73.5498C89.7205 73.5498 89.6437 73.5498 89.5645 73.5498C89.5645 73.473 89.5645 73.3961 89.5645 73.3169Z" fill="black"/>
<path d="M21.6055 71.8027C21.7016 71.8027 21.7976 71.8027 21.8966 71.8027C21.8774 71.8796 21.8582 71.9565 21.8384 72.0357C21.7615 72.0165 21.6847 71.9972 21.6055 71.9774C21.6055 71.9198 21.6055 71.8621 21.6055 71.8027Z" fill="black"/>
<path d="M19.2164 68.1923C19.2741 68.1923 19.3317 68.1923 19.3911 68.1923C19.3911 68.2883 19.3911 68.3844 19.3911 68.4834C19.3143 68.4642 19.2374 68.445 19.1582 68.4252C19.1774 68.3483 19.1966 68.2715 19.2164 68.1923Z" fill="black"/>
<path d="M43.5582 42.6857C43.6159 42.6857 43.6735 42.6857 43.7329 42.6857C43.7329 42.7818 43.7329 42.8778 43.7329 42.9768C43.6561 42.9576 43.5792 42.9384 43.5 42.9186C43.5192 42.8417 43.5384 42.7649 43.5582 42.6857Z" fill="black"/>
<path d="M23.1188 12.9862C23.2341 13.015 23.2341 13.015 23.3517 13.0444C23.3517 13.1021 23.3517 13.1597 23.3517 13.2191C23.2556 13.2191 23.1595 13.2191 23.0605 13.2191C23.0798 13.1423 23.099 13.0654 23.1188 12.9862Z" fill="black"/>
<path d="M27.1367 11.1227C27.2328 11.1227 27.3289 11.1227 27.4279 11.1227C27.4087 11.1995 27.3895 11.2764 27.3697 11.3556C27.2928 11.3364 27.2159 11.3172 27.1367 11.2974C27.1367 11.2397 27.1367 11.1821 27.1367 11.1227Z" fill="black"/>
<path d="M30.7477 8.61865C30.863 8.64748 30.863 8.64748 30.9806 8.67689C30.9806 8.73454 30.9806 8.79219 30.9806 8.85159C30.8845 8.85159 30.7885 8.85159 30.6895 8.85159C30.7087 8.77472 30.7279 8.69785 30.7477 8.61865Z" fill="black"/>
<path d="M27.486 5.35754C27.6013 5.38637 27.6013 5.38637 27.7189 5.41578C27.7189 5.47343 27.7189 5.53108 27.7189 5.59048C27.6228 5.59048 27.5267 5.59048 27.4277 5.59048C27.447 5.51361 27.4662 5.43674 27.486 5.35754Z" fill="black"/>
<path d="M17.7031 84.8472C17.8473 84.876 17.8473 84.876 17.9943 84.9054C17.9751 84.9631 17.9559 85.0207 17.9361 85.0801C17.8592 85.0801 17.7823 85.0801 17.7031 85.0801C17.7031 85.0032 17.7031 84.9264 17.7031 84.8472Z" fill="black"/>
<path d="M33.3105 71.8027C33.4066 71.8027 33.5027 71.8027 33.6017 71.8027C33.5825 71.8796 33.5633 71.9565 33.5435 72.0357C33.4666 72.0165 33.3897 71.9972 33.3105 71.9774C33.3105 71.9198 33.3105 71.8621 33.3105 71.8027Z" fill="black"/>
<path d="M18.8688 68.5416C18.9264 68.5416 18.9841 68.5416 19.0435 68.5416C19.0243 68.6377 19.005 68.7338 18.9852 68.8328C18.9276 68.8136 18.8699 68.7944 18.8105 68.7746C18.8298 68.6977 18.849 68.6208 18.8688 68.5416Z" fill="black"/>
<path d="M35.0566 87.0601C35.1527 87.0601 35.2488 87.0601 35.3478 87.0601C35.3094 87.1369 35.2709 87.2138 35.2313 87.293C35.1737 87.2738 35.116 87.2546 35.0566 87.2348C35.0566 87.1771 35.0566 87.1195 35.0566 87.0601Z" fill="black"/>
<path d="M23.4688 84.2067C23.5456 84.2067 23.6225 84.2067 23.7017 84.2067C23.7017 84.2835 23.7017 84.3604 23.7017 84.4396C23.6248 84.4396 23.5479 84.4396 23.4688 84.4396C23.4688 84.3627 23.4688 84.2859 23.4688 84.2067Z" fill="black"/>
<path d="M22.4196 83.4496C22.4772 83.4496 22.5349 83.4496 22.5943 83.4496C22.6135 83.5072 22.6327 83.5649 22.6525 83.6243C22.5564 83.6435 22.4603 83.6627 22.3613 83.6825C22.3805 83.6057 22.3998 83.5288 22.4196 83.4496Z" fill="black"/>
<path d="M22.0117 83.1002C22.0886 83.1002 22.1655 83.1002 22.2447 83.1002C22.2447 83.1771 22.2447 83.254 22.2447 83.3332C22.1678 83.3332 22.0909 83.3332 22.0117 83.3332C22.0117 83.2563 22.0117 83.1794 22.0117 83.1002Z" fill="black"/>
<path d="M20.5566 81.2949C20.6335 81.2949 20.7104 81.2949 20.7896 81.2949C20.7896 81.3718 20.7896 81.4487 20.7896 81.5279C20.7127 81.5279 20.6358 81.5279 20.5566 81.5279C20.5566 81.451 20.5566 81.3741 20.5566 81.2949Z" fill="black"/>
<path d="M89.2148 72.9092C89.2917 72.9284 89.3686 72.9476 89.4478 72.9674C89.4478 73.0251 89.4478 73.0827 89.4478 73.1421C89.3709 73.1421 89.294 73.1421 89.2148 73.1421C89.2148 73.0652 89.2148 72.9884 89.2148 72.9092Z" fill="black"/>
<path d="M21.3141 72.1521C21.4294 72.1809 21.4294 72.1809 21.547 72.2103C21.5278 72.268 21.5086 72.3256 21.4888 72.385C21.4119 72.3658 21.3351 72.3466 21.2559 72.3268C21.2751 72.2692 21.2943 72.2115 21.3141 72.1521Z" fill="black"/>
<path d="M17.0039 70.7545C17.0808 70.7545 17.1576 70.7545 17.2368 70.7545C17.2368 70.8314 17.2368 70.9083 17.2368 70.9875C17.16 70.9875 17.0831 70.9875 17.0039 70.9875C17.0039 70.9106 17.0039 70.8337 17.0039 70.7545Z" fill="black"/>
<path d="M34.8821 21.3137C34.9397 21.3329 34.9974 21.3522 35.0568 21.372C35.0568 21.4296 35.0568 21.4873 35.0568 21.5467C34.9991 21.5659 34.9415 21.5851 34.8821 21.6049C34.8437 21.5857 34.8052 21.5665 34.7656 21.5467C34.8041 21.4698 34.8425 21.3929 34.8821 21.3137Z" fill="black"/>
<path d="M5.06605 15.0826C5.1237 15.1019 5.18135 15.1211 5.24075 15.1409C5.22153 15.2177 5.20231 15.2946 5.18252 15.3738C5.12486 15.3546 5.06721 15.3354 5.00781 15.3156C5.02703 15.2387 5.04625 15.1618 5.06605 15.0826Z" fill="black"/>
<path d="M3.261 13.2773C3.31865 13.2966 3.3763 13.3158 3.4357 13.3356C3.4357 13.3932 3.4357 13.4509 3.4357 13.5103C3.33962 13.4911 3.24353 13.4718 3.14453 13.452C3.14453 13.4136 3.14453 13.3752 3.14453 13.3356C3.18297 13.3164 3.2214 13.2971 3.261 13.2773Z" fill="black"/>
<path d="M7.51136 11.5304C7.62666 11.5592 7.62666 11.5592 7.7443 11.5886C7.72508 11.6463 7.70586 11.7039 7.68606 11.7633C7.60919 11.7633 7.53232 11.7633 7.45312 11.7633C7.47234 11.6865 7.49156 11.6096 7.51136 11.5304Z" fill="black"/>
<path d="M24.2828 8.56042C24.3597 8.56042 24.4366 8.56042 24.5158 8.56042C24.4966 8.63729 24.4773 8.71416 24.4575 8.79336C24.3999 8.79336 24.3422 8.79336 24.2828 8.79336C24.2636 8.73571 24.2444 8.67806 24.2246 8.61866C24.2438 8.59944 24.263 8.58022 24.2828 8.56042Z" fill="black"/>
<path d="M6.75586 8.56042C6.83273 8.56042 6.9096 8.56042 6.9888 8.56042C6.9888 8.63729 6.9888 8.71416 6.9888 8.79336C6.91193 8.79336 6.83506 8.79336 6.75586 8.79336C6.75586 8.71649 6.75586 8.63962 6.75586 8.56042Z" fill="black"/>
<path d="M7.45312 7.86157C7.54921 7.86157 7.6453 7.86157 7.7443 7.86157C7.70586 7.93844 7.66743 8.01531 7.62783 8.09451C7.57018 8.07529 7.51252 8.05607 7.45312 8.03627C7.45312 7.97862 7.45312 7.92097 7.45312 7.86157Z" fill="black"/>
<path d="M5.06605 4.2511C5.1237 4.27032 5.18135 4.28953 5.24075 4.30933C5.22153 4.3862 5.20231 4.46307 5.18252 4.54227C5.12486 4.52305 5.06721 4.50384 5.00781 4.48404C5.02703 4.40717 5.04625 4.3303 5.06605 4.2511Z" fill="black"/>
<path d="M34.0078 87.7589C34.0847 87.7589 34.1616 87.7589 34.2407 87.7589C34.2215 87.8358 34.2023 87.9126 34.1825 87.9918C34.1249 87.9918 34.0672 87.9918 34.0078 87.9918C34.0078 87.915 34.0078 87.8381 34.0078 87.7589Z" fill="black"/>
<path d="M19.9157 87.0601C19.9925 87.0601 20.0694 87.0601 20.1486 87.0601C20.1294 87.1369 20.1102 87.2138 20.0904 87.293C20.0135 87.2546 19.9366 87.2161 19.8574 87.1765C19.8766 87.1381 19.8959 87.0997 19.9157 87.0601Z" fill="black"/>
<path d="M19.2164 86.3031C19.2741 86.3031 19.3317 86.3031 19.3911 86.3031C19.3911 86.38 19.3911 86.4568 19.3911 86.536C19.3143 86.536 19.2374 86.536 19.1582 86.536C19.1774 86.4592 19.1966 86.3823 19.2164 86.3031Z" fill="black"/>
<path d="M18.4606 85.6042C18.5374 85.6042 18.6143 85.6042 18.6935 85.6042C18.6743 85.6811 18.6551 85.758 18.6353 85.8372C18.5584 85.7988 18.4815 85.7603 18.4023 85.7207C18.4216 85.6823 18.4408 85.6438 18.4606 85.6042Z" fill="black"/>
<path d="M38.027 83.7407C38.1039 83.7792 38.1807 83.8176 38.2599 83.8572C38.2407 83.8956 38.2215 83.9341 38.2017 83.9737C38.1248 83.9737 38.0479 83.9737 37.9688 83.9737C37.988 83.8968 38.0072 83.8199 38.027 83.7407Z" fill="black"/>
<path d="M33.0192 83.1002C33.0768 83.1002 33.1345 83.1002 33.1939 83.1002C33.1939 83.1771 33.1939 83.254 33.1939 83.3332C33.117 83.3332 33.0401 83.3332 32.9609 83.3332C32.9802 83.2563 32.9994 83.1794 33.0192 83.1002Z" fill="black"/>
<path d="M87.4102 82.6925C87.487 82.6925 87.5639 82.6925 87.6431 82.6925C87.6239 82.7694 87.6047 82.8462 87.5849 82.9254C87.5272 82.9254 87.4696 82.9254 87.4102 82.9254C87.4102 82.8486 87.4102 82.7717 87.4102 82.6925Z" fill="black"/>
<path d="M88.8652 81.5861C88.9421 81.5861 89.019 81.5861 89.0982 81.5861C89.079 81.6629 89.0597 81.7398 89.0399 81.819C88.9823 81.819 88.9246 81.819 88.8652 81.819C88.8652 81.7421 88.8652 81.6653 88.8652 81.5861Z" fill="black"/>
<path d="M34.1246 72.851C34.1823 72.851 34.2399 72.851 34.2993 72.851C34.2993 72.9278 34.2993 73.0047 34.2993 73.0839C34.2225 73.0839 34.1456 73.0839 34.0664 73.0839C34.0856 73.007 34.1048 72.9302 34.1246 72.851Z" fill="black"/>
<path d="M87.818 71.4534C87.8757 71.4726 87.9333 71.4918 87.9927 71.5116C87.9735 71.5885 87.9543 71.6653 87.9345 71.7445C87.8768 71.7253 87.8192 71.7061 87.7598 71.6863C87.779 71.6094 87.7982 71.5326 87.818 71.4534Z" fill="black"/>
<path d="M33.0192 71.3951C33.0768 71.4144 33.1345 71.4336 33.1939 71.4534C33.1747 71.5302 33.1554 71.6071 33.1356 71.6863C33.078 71.6671 33.0203 71.6479 32.9609 71.6281C32.9802 71.5512 32.9994 71.4743 33.0192 71.3951Z" fill="black"/>
<path d="M58.3516 67.7845C58.4284 67.7845 58.5053 67.7845 58.5845 67.7845C58.5653 67.8614 58.5461 67.9383 58.5263 68.0175C58.4686 68.0175 58.411 68.0175 58.3516 68.0175C58.3516 67.9406 58.3516 67.8637 58.3516 67.7845Z" fill="black"/>
<path d="M58.6992 67.4352C58.7761 67.4352 58.853 67.4352 58.9322 67.4352C58.9129 67.512 58.8937 67.5889 58.8739 67.6681C58.8163 67.6681 58.7586 67.6681 58.6992 67.6681C58.6992 67.5912 58.6992 67.5144 58.6992 67.4352Z" fill="black"/>
<path d="M58.6992 57.3025C58.7761 57.3217 58.853 57.3409 58.9322 57.3607C58.9322 57.4184 58.9322 57.476 58.9322 57.5354C58.8553 57.5354 58.7784 57.5354 58.6992 57.5354C58.6992 57.4586 58.6992 57.3817 58.6992 57.3025Z" fill="black"/>
<path d="M58.3516 56.953C58.4284 56.9722 58.5053 56.9914 58.5845 57.0112C58.5845 57.0689 58.5845 57.1265 58.5845 57.1859C58.5076 57.1859 58.4308 57.1859 58.3516 57.1859C58.3516 57.1091 58.3516 57.0322 58.3516 56.953Z" fill="black"/>
<path d="M43.2106 42.3363C43.2682 42.3363 43.3259 42.3363 43.3853 42.3363C43.3853 42.4132 43.3853 42.49 43.3853 42.5692C43.3084 42.5692 43.2315 42.5692 43.1523 42.5692C43.1716 42.4924 43.1908 42.4155 43.2106 42.3363Z" fill="black"/>
<path d="M43.2106 32.6112C43.2682 32.6112 43.3259 32.6112 43.3853 32.6112C43.3853 32.6881 43.3853 32.7649 43.3853 32.8441C43.3084 32.8441 43.2315 32.8441 43.1523 32.8441C43.1716 32.7673 43.1908 32.6904 43.2106 32.6112Z" fill="black"/>
<path d="M43.9078 31.9124C44.0231 31.9412 44.0231 31.9412 44.1408 31.9706C44.1216 32.0282 44.1023 32.0859 44.0825 32.1453C44.0057 32.1261 43.9288 32.1069 43.8496 32.0871C43.8688 32.0294 43.888 31.9718 43.9078 31.9124Z" fill="black"/>
<path d="M7.10547 11.1809C7.18234 11.2001 7.25921 11.2193 7.33841 11.2391C7.33841 11.2968 7.33841 11.3544 7.33841 11.4138C7.26154 11.4138 7.18467 11.4138 7.10547 11.4138C7.10547 11.337 7.10547 11.2601 7.10547 11.1809Z" fill="black"/>
<path d="M6.75586 10.8315C6.83273 10.8315 6.9096 10.8315 6.9888 10.8315C6.96958 10.9084 6.95036 10.9853 6.93056 11.0645C6.87291 11.0645 6.81526 11.0645 6.75586 11.0645C6.75586 10.9876 6.75586 10.9107 6.75586 10.8315Z" fill="black"/>
<path d="M29.291 6.81335C29.3679 6.83257 29.4448 6.85179 29.524 6.87159C29.524 6.92924 29.524 6.98689 29.524 7.04629C29.4471 7.04629 29.3702 7.04629 29.291 7.04629C29.291 6.96942 29.291 6.89255 29.291 6.81335Z" fill="black"/>
<path d="M21.0231 87.7589C21.0807 87.7589 21.1384 87.7589 21.1978 87.7589C21.1978 87.8358 21.1978 87.9126 21.1978 87.9918C21.1209 87.9726 21.044 87.9534 20.9648 87.9336C20.9841 87.876 21.0033 87.8183 21.0231 87.7589Z" fill="black"/>
<path d="M37.2695 84.8472C37.3464 84.8664 37.4233 84.8856 37.5025 84.9054C37.4833 84.9631 37.464 85.0207 37.4442 85.0801C37.3866 85.0801 37.3289 85.0801 37.2695 85.0801C37.2695 85.0032 37.2695 84.9264 37.2695 84.8472Z" fill="black"/>
<path d="M86.07 78.0338C86.1276 78.0338 86.1853 78.0338 86.2447 78.0338C86.2447 78.1107 86.2447 78.1876 86.2447 78.2668C86.1678 78.2475 86.0909 78.2283 86.0117 78.2085C86.0309 78.1509 86.0502 78.0932 86.07 78.0338Z" fill="black"/>
<path d="M22.4196 71.0457C22.4772 71.0457 22.5349 71.0457 22.5943 71.0457C22.5943 71.1225 22.5943 71.1994 22.5943 71.2786C22.5174 71.2594 22.4405 71.2402 22.3613 71.2204C22.3805 71.1627 22.3998 71.1051 22.4196 71.0457Z" fill="black"/>
<path d="M31.9121 70.6963C31.989 70.6963 32.0658 70.6963 32.145 70.6963C32.1258 70.7732 32.1066 70.85 32.0868 70.9292C32.0292 70.91 31.9715 70.8908 31.9121 70.871C31.9121 70.8133 31.9121 70.7557 31.9121 70.6963Z" fill="black"/>
<path d="M23.4688 70.3469C23.5456 70.3469 23.6225 70.3469 23.7017 70.3469C23.6825 70.4238 23.6633 70.5007 23.6435 70.5799C23.5858 70.5606 23.5281 70.5414 23.4688 70.5216C23.4688 70.464 23.4688 70.4063 23.4688 70.3469Z" fill="black"/>
<path d="M17.9361 69.6481C17.9361 69.7249 17.9361 69.8018 17.9361 69.881C17.8592 69.881 17.7823 69.881 17.7031 69.881C17.7031 69.8234 17.7031 69.7657 17.7031 69.7063C17.8196 69.6481 17.8196 69.6481 17.9361 69.6481Z" fill="black"/>
<path d="M43.5582 67.7845C43.6159 67.7845 43.6735 67.7845 43.7329 67.7845C43.7329 67.8614 43.7329 67.9383 43.7329 68.0175C43.6561 67.9983 43.5792 67.979 43.5 67.9592C43.5192 67.9016 43.5384 67.8439 43.5582 67.7845Z" fill="black"/>
<path d="M83.7985 21.3719C83.9138 21.4008 83.9138 21.4008 84.0314 21.4302C83.9738 21.5167 83.9738 21.5167 83.9149 21.6049C83.8573 21.5857 83.7996 21.5665 83.7402 21.5467C83.7595 21.489 83.7787 21.4313 83.7985 21.3719Z" fill="black"/>
<path d="M31.5055 9.7251C31.5632 9.74431 31.6208 9.76353 31.6802 9.78333C31.6802 9.84098 31.6802 9.89864 31.6802 9.95803C31.6033 9.95803 31.5265 9.95803 31.4473 9.95803C31.4665 9.88117 31.4857 9.8043 31.5055 9.7251Z" fill="black"/>
<path d="M25.0407 8.90979C25.0983 8.92901 25.156 8.94822 25.2154 8.96802C25.2154 9.02568 25.2154 9.08333 25.2154 9.14273C25.1385 9.14273 25.0616 9.14273 24.9824 9.14273C25.0016 9.06586 25.0209 8.98899 25.0407 8.90979Z" fill="black"/>
<path d="M7.10547 8.21106C7.18234 8.21106 7.25921 8.21106 7.33841 8.21106C7.31919 8.28793 7.29997 8.3648 7.28017 8.444C7.22252 8.42478 7.16487 8.40556 7.10547 8.38576C7.10547 8.32811 7.10547 8.27046 7.10547 8.21106Z" fill="black"/>
<path d="M28.943 6.46399C29.0007 6.46399 29.0583 6.46399 29.1177 6.46399C29.1177 6.54086 29.1177 6.61773 29.1177 6.69693C29.0408 6.67771 28.964 6.65849 28.8848 6.63869C28.904 6.58104 28.9232 6.52339 28.943 6.46399Z" fill="black"/>
<path d="M27.8942 5.70697C27.9518 5.72619 28.0095 5.7454 28.0689 5.7652C28.0689 5.82286 28.0689 5.88051 28.0689 5.93991C27.992 5.93991 27.9151 5.93991 27.8359 5.93991C27.8552 5.86304 27.8744 5.78617 27.8942 5.70697Z" fill="black"/>
<path d="M31.9121 83.8572C31.989 83.8764 32.0658 83.8956 32.145 83.9154C32.1258 83.9731 32.1066 84.0307 32.0868 84.0901C32.0292 84.0709 31.9715 84.0517 31.9121 84.0319C31.9121 83.9742 31.9121 83.9166 31.9121 83.8572Z" fill="black"/>
<path d="M17.0039 83.799C17.0808 83.799 17.1576 83.799 17.2368 83.799C17.2176 83.8758 17.1984 83.9527 17.1786 84.0319C17.121 84.0127 17.0633 83.9935 17.0039 83.9737C17.0039 83.916 17.0039 83.8583 17.0039 83.799Z" fill="black"/>
<path d="M86.7106 83.042C86.7682 83.042 86.8259 83.042 86.8853 83.042C86.8661 83.1189 86.8468 83.1957 86.827 83.2749C86.7694 83.2557 86.7117 83.2365 86.6523 83.2167C86.6716 83.159 86.6908 83.1014 86.7106 83.042Z" fill="black"/>
<path d="M34.1829 81.6443C34.2213 81.6635 34.2597 81.6827 34.2993 81.7025C34.2993 81.7602 34.2993 81.8178 34.2993 81.8772C34.2225 81.8772 34.1456 81.8772 34.0664 81.8772C34.0664 81.8196 34.0664 81.7619 34.0664 81.7025C34.1048 81.6833 34.1433 81.6641 34.1829 81.6443Z" fill="black"/>
<path d="M20.207 73.9574C20.2839 73.9766 20.3608 73.9958 20.44 74.0156C20.4208 74.0733 20.4015 74.1309 20.3817 74.1903C20.3241 74.1903 20.2664 74.1903 20.207 74.1903C20.207 74.1135 20.207 74.0366 20.207 73.9574Z" fill="black"/>
<path d="M20.5566 73.2587C20.6335 73.2587 20.7104 73.2587 20.7896 73.2587C20.7896 73.3163 20.7896 73.374 20.7896 73.4334C20.7319 73.4526 20.6743 73.4718 20.6149 73.4916C20.5957 73.4147 20.5764 73.3379 20.5566 73.2587Z" fill="black"/>
<path d="M34.066 66.7363C34.1237 66.7555 34.1814 66.7748 34.2407 66.7946C34.2407 66.8522 34.2407 66.9099 34.2407 66.9693C34.1639 66.9693 34.087 66.9693 34.0078 66.9693C34.027 66.8924 34.0462 66.8155 34.066 66.7363Z" fill="black"/>
<path d="M43.2688 57.6519C43.3072 57.6711 43.3457 57.6903 43.3853 57.7101C43.3853 57.7677 43.3853 57.8254 43.3853 57.8848C43.3084 57.8848 43.2315 57.8848 43.1523 57.8848C43.1523 57.8271 43.1523 57.7695 43.1523 57.7101C43.1908 57.6909 43.2292 57.6717 43.2688 57.6519Z" fill="black"/>
<path d="M43.5582 57.3025C43.6159 57.3025 43.6735 57.3025 43.7329 57.3025C43.7137 57.3794 43.6945 57.4562 43.6747 57.5354C43.6171 57.5162 43.5594 57.497 43.5 57.4772C43.5192 57.4195 43.5384 57.3619 43.5582 57.3025Z" fill="black"/>
<path d="M43.9078 43.0933C44.0231 43.1221 44.0231 43.1221 44.1408 43.1515C44.1216 43.2091 44.1023 43.2668 44.0825 43.3262C44.0057 43.2878 43.9288 43.2493 43.8496 43.2097C43.8688 43.1713 43.888 43.1329 43.9078 43.0933Z" fill="black"/>
<path d="M23.527 13.3356C23.5846 13.3548 23.6423 13.374 23.7017 13.3938C23.7017 13.4515 23.7017 13.5091 23.7017 13.5685C23.6248 13.5685 23.5479 13.5685 23.4688 13.5685C23.488 13.4916 23.5072 13.4148 23.527 13.3356Z" fill="black"/>
<path d="M22.7692 12.6368C22.8268 12.6561 22.8845 12.6753 22.9439 12.6951C22.9439 12.7527 22.9439 12.8104 22.9439 12.8698C22.867 12.8506 22.7901 12.8313 22.7109 12.8115C22.7302 12.7539 22.7494 12.6962 22.7692 12.6368Z" fill="black"/>
<path d="M25.332 9.3175C25.4089 9.3175 25.4858 9.3175 25.565 9.3175C25.5458 9.39437 25.5265 9.47124 25.5067 9.55044C25.4491 9.53122 25.3914 9.51201 25.332 9.49221C25.332 9.43456 25.332 9.3769 25.332 9.3175Z" fill="black"/>
<path d="M29.6989 7.16284C29.7565 7.18206 29.8142 7.20128 29.8736 7.22108C29.8736 7.27873 29.8736 7.33638 29.8736 7.39578C29.7967 7.39578 29.7198 7.39578 29.6406 7.39578C29.6598 7.31891 29.6791 7.24204 29.6989 7.16284Z" fill="black"/>
<path d="M23.1777 88.8654C23.2546 88.8654 23.3315 88.8654 23.4107 88.8654C23.4107 88.923 23.4107 88.9807 23.4107 89.0401C23.3338 89.0401 23.2569 89.0401 23.1777 89.0401C23.1777 88.9824 23.1777 88.9248 23.1777 88.8654Z" fill="black"/>
<path d="M33.3105 88.1083C33.3682 88.1083 33.4259 88.1083 33.4852 88.1083C33.4852 88.1851 33.4852 88.262 33.4852 88.3412C33.4276 88.3412 33.3699 88.3412 33.3105 88.3412C33.3105 88.2643 33.3105 88.1875 33.3105 88.1083Z" fill="black"/>
<path d="M18.8688 85.9536C18.9264 85.9728 18.9841 85.992 19.0435 86.0118C19.0243 86.0695 19.005 86.1272 18.9852 86.1866C18.9276 86.1673 18.8699 86.1481 18.8105 86.1283C18.8298 86.0707 18.849 86.013 18.8688 85.9536Z" fill="black"/>
<path d="M20.207 80.5961C20.2839 80.5961 20.3608 80.5961 20.44 80.5961C20.44 80.6537 20.44 80.7114 20.44 80.7708C20.3631 80.7708 20.2862 80.7708 20.207 80.7708C20.207 80.7131 20.207 80.6555 20.207 80.5961Z" fill="black"/>
<path d="M89.9723 80.1302C90.0299 80.1302 90.0876 80.1302 90.147 80.1302C90.1278 80.2071 90.1086 80.284 90.0888 80.3632C90.0503 80.3632 90.0119 80.3632 89.9723 80.3632C89.9531 80.3055 89.9339 80.2479 89.9141 80.1885C89.9333 80.1693 89.9525 80.15 89.9723 80.1302Z" fill="black"/>
<path d="M85.3125 78.7909C85.3894 78.7909 85.4662 78.7909 85.5454 78.7909C85.5454 78.8485 85.5454 78.9062 85.5454 78.9656C85.4686 78.9656 85.3917 78.9656 85.3125 78.9656C85.3125 78.9079 85.3125 78.8503 85.3125 78.7909Z" fill="black"/>
<path d="M86.0117 75.8209C86.0886 75.8209 86.1655 75.8209 86.2447 75.8209C86.2447 75.8786 86.2447 75.9362 86.2447 75.9956C86.1678 75.9956 86.0909 75.9956 86.0117 75.9956C86.0117 75.938 86.0117 75.8803 86.0117 75.8209Z" fill="black"/>
<path d="M25.3317 69.5898C25.3893 69.6091 25.447 69.6283 25.5064 69.6481C25.4872 69.7057 25.4679 69.7634 25.4481 69.8228C25.3905 69.8036 25.3328 69.7843 25.2734 69.7645C25.2927 69.7069 25.3119 69.6492 25.3317 69.5898Z" fill="black"/>
<path d="M43.9082 56.953C43.9659 56.953 44.0235 56.953 44.0829 56.953C44.0829 57.0299 44.0829 57.1067 44.0829 57.1859C44.0253 57.1859 43.9676 57.1859 43.9082 57.1859C43.9082 57.1091 43.9082 57.0322 43.9082 56.953Z" fill="black"/>
<path d="M27.6032 11.8215C27.6608 11.8408 27.7185 11.86 27.7779 11.8798C27.7586 11.9374 27.7394 11.9951 27.7196 12.0545C27.662 12.0353 27.6043 12.016 27.5449 11.9962C27.5641 11.9386 27.5834 11.8809 27.6032 11.8215Z" fill="black"/>
<path d="M23.5856 8.21106C23.6432 8.21106 23.7009 8.21106 23.7603 8.21106C23.7411 8.28793 23.7218 8.3648 23.702 8.444C23.6444 8.42478 23.5867 8.40556 23.5273 8.38576C23.5466 8.32811 23.5658 8.27046 23.5856 8.21106Z" fill="black"/>
<path d="M3.20312 6.11462C3.27999 6.11462 3.35686 6.11462 3.43606 6.11462C3.43606 6.17228 3.43606 6.22993 3.43606 6.28933C3.35919 6.28933 3.28232 6.28933 3.20312 6.28933C3.20312 6.23167 3.20312 6.17402 3.20312 6.11462Z" fill="black"/>
<path d="M34.416 87.4095C34.4737 87.4095 34.5313 87.4095 34.5907 87.4095C34.5715 87.4864 34.5523 87.5633 34.5325 87.6425C34.494 87.6425 34.4556 87.6425 34.416 87.6425C34.416 87.5656 34.416 87.4887 34.416 87.4095Z" fill="black"/>
<path d="M24.2246 84.556C24.2823 84.5752 24.3399 84.5945 24.3993 84.6143C24.3993 84.6719 24.3993 84.7296 24.3993 84.789C24.3417 84.789 24.284 84.789 24.2246 84.789C24.2246 84.7121 24.2246 84.6352 24.2246 84.556Z" fill="black"/>
<path d="M31.5621 84.2067C31.6198 84.2259 31.6774 84.2451 31.7368 84.2649C31.7176 84.3226 31.6984 84.3802 31.6786 84.4396C31.621 84.4204 31.5633 84.4012 31.5039 84.3814C31.5231 84.3237 31.5423 84.2661 31.5621 84.2067Z" fill="black"/>
<path d="M88.5156 81.9355C88.5733 81.9548 88.6309 81.974 88.6903 81.9938C88.6903 82.0514 88.6903 82.1091 88.6903 82.1685C88.6327 82.1685 88.575 82.1685 88.5156 82.1685C88.5156 82.0916 88.5156 82.0147 88.5156 81.9355Z" fill="black"/>
<path d="M88.5739 72.2104C88.6123 72.2104 88.6507 72.2104 88.6903 72.2104C88.6903 72.2873 88.6903 72.3642 88.6903 72.4434C88.6327 72.4434 88.575 72.4434 88.5156 72.4434C88.5348 72.3665 88.5541 72.2896 88.5739 72.2104Z" fill="black"/>
<path d="M87.1188 71.104C87.1764 71.1617 87.2341 71.2193 87.2935 71.2787C87.2166 71.2979 87.1397 71.3171 87.0605 71.3369C87.0798 71.2601 87.099 71.1832 87.1188 71.104Z" fill="black"/>
<path d="M33.3105 66.387C33.3682 66.4062 33.4259 66.4254 33.4852 66.4452C33.4852 66.5028 33.4852 66.5605 33.4852 66.6199C33.4276 66.6199 33.3699 66.6199 33.3105 66.6199C33.3105 66.543 33.3105 66.4662 33.3105 66.387Z" fill="black"/>
<path d="M26.7871 10.7733C26.864 10.7733 26.9408 10.7733 27.02 10.7733C27.02 10.831 27.02 10.8886 27.02 10.948C26.9432 10.9288 26.8663 10.9096 26.7871 10.8898C26.7871 10.8513 26.7871 10.8129 26.7871 10.7733Z" fill="black"/>
<path d="M31.8532 10.4822C31.9108 10.4822 31.9685 10.4822 32.0279 10.4822C32.0279 10.5398 32.0279 10.5975 32.0279 10.6569C31.951 10.6569 31.8741 10.6569 31.7949 10.6569C31.8141 10.5992 31.8334 10.5416 31.8532 10.4822Z" fill="black"/>
<path d="M20.3239 87.4095C20.3815 87.4095 20.4392 87.4095 20.4986 87.4095C20.4986 87.4672 20.4986 87.5248 20.4986 87.5842C20.4217 87.565 20.3448 87.5458 20.2656 87.526C20.2848 87.4876 20.3041 87.4491 20.3239 87.4095Z" fill="black"/>
<path d="M29.7575 84.9636C29.8151 84.9636 29.8728 84.9636 29.9322 84.9636C29.9322 85.0213 29.9322 85.0789 29.9322 85.1383C29.8553 85.1191 29.7784 85.0999 29.6992 85.0801C29.7184 85.0417 29.7377 85.0032 29.7575 84.9636Z" fill="black"/>
<path d="M17.4117 84.4978C17.4694 84.4978 17.5271 84.4978 17.5865 84.4978C17.5865 84.5555 17.5865 84.6131 17.5865 84.6725C17.5096 84.6533 17.4327 84.6341 17.3535 84.6143C17.3727 84.5758 17.392 84.5374 17.4117 84.4978Z" fill="black"/>
<path d="M16.0149 81.5861C16.0533 81.6053 16.0918 81.6245 16.1314 81.6443C16.1122 81.7019 16.0929 81.7596 16.0731 81.819C16.0155 81.7998 15.9578 81.7806 15.8984 81.7608C15.8984 81.7223 15.8984 81.6839 15.8984 81.6443C15.9369 81.6251 15.9753 81.6059 16.0149 81.5861Z" fill="black"/>
<path d="M89.2148 81.2367C89.2917 81.2559 89.3686 81.2751 89.4478 81.2949C89.4286 81.3334 89.4093 81.3718 89.3895 81.4114C89.3319 81.4114 89.2742 81.4114 89.2148 81.4114C89.2148 81.3537 89.2148 81.2961 89.2148 81.2367Z" fill="black"/>
<path d="M24.2828 69.9392C24.3213 69.9584 24.3597 69.9776 24.3993 69.9974C24.3993 70.0551 24.3993 70.1127 24.3993 70.1721C24.3417 70.1721 24.284 70.1721 24.2246 70.1721C24.2438 70.0953 24.263 70.0184 24.2828 69.9392Z" fill="black"/>
<path d="M23.8766 14.0927C23.9342 14.1119 23.9919 14.1311 24.0513 14.1509C24.0513 14.1893 24.0513 14.2278 24.0513 14.2674C23.9744 14.2674 23.8976 14.2674 23.8184 14.2674C23.8376 14.2097 23.8568 14.1521 23.8766 14.0927Z" fill="black"/>
<path d="M27.9528 12.5786C28.0104 12.5786 28.0681 12.5786 28.1275 12.5786C28.1275 12.6363 28.1275 12.6939 28.1275 12.7533C28.0506 12.7341 27.9737 12.7149 27.8945 12.6951C27.9137 12.6566 27.933 12.6182 27.9528 12.5786Z" fill="black"/>
<path d="M30.0485 7.57043C30.1061 7.58965 30.1638 7.60887 30.2232 7.62867C30.2232 7.6671 30.2232 7.70554 30.2232 7.74514C30.1463 7.74514 30.0694 7.74514 29.9902 7.74514C30.0095 7.68749 30.0287 7.62983 30.0485 7.57043Z" fill="black"/>
<path d="M28.5934 6.11462C28.651 6.13384 28.7087 6.15306 28.7681 6.17286C28.7681 6.21129 28.7681 6.24973 28.7681 6.28933C28.6912 6.28933 28.6144 6.28933 28.5352 6.28933C28.5544 6.23167 28.5736 6.17402 28.5934 6.11462Z" fill="black"/>
<path d="M4.01722 5.00812C4.05565 5.02733 4.09409 5.04655 4.13369 5.06635C4.13369 5.124 4.13369 5.18166 4.13369 5.24105C4.07604 5.24105 4.01838 5.24105 3.95898 5.24105C3.9782 5.16419 3.99742 5.08732 4.01722 5.00812Z" fill="black"/>
<path d="M26.7871 5.00812C26.8448 5.02733 26.9024 5.04655 26.9618 5.06635C26.9426 5.124 26.9234 5.18166 26.9036 5.24105C26.8651 5.24105 26.8267 5.24105 26.7871 5.24105C26.7871 5.16419 26.7871 5.08732 26.7871 5.00812Z" fill="black"/>
<path d="M25.3317 84.9636C25.3893 84.9828 25.447 85.0021 25.5064 85.0219C25.4872 85.0603 25.4679 85.0987 25.4481 85.1383C25.3905 85.1383 25.3328 85.1383 25.2734 85.1383C25.2927 85.0807 25.3119 85.023 25.3317 84.9636Z" fill="black"/>
<path d="M30.8066 84.6143C30.8643 84.6143 30.9219 84.6143 30.9813 84.6143C30.9813 84.6719 30.9813 84.7296 30.9813 84.789C30.9237 84.789 30.866 84.789 30.8066 84.789C30.8066 84.7313 30.8066 84.6737 30.8066 84.6143Z" fill="black"/>
<path d="M84.6152 79.1403C84.6729 79.1403 84.7305 79.1403 84.7899 79.1403C84.7899 79.1979 84.7899 79.2556 84.7899 79.315C84.7323 79.315 84.6746 79.315 84.6152 79.315C84.6152 79.2573 84.6152 79.1997 84.6152 79.1403Z" fill="black"/>
<path d="M90.3203 74.7727C90.378 74.7727 90.4356 74.7727 90.495 74.7727C90.495 74.8304 90.495 74.888 90.495 74.9474C90.4374 74.9474 90.3797 74.9474 90.3203 74.9474C90.3203 74.8898 90.3203 74.8321 90.3203 74.7727Z" fill="black"/>
<path d="M15.957 72.9674C16.0147 72.9674 16.0723 72.9674 16.1317 72.9674C16.1317 73.0251 16.1317 73.0827 16.1317 73.1421C16.0741 73.1421 16.0164 73.1421 15.957 73.1421C15.957 73.0845 15.957 73.0268 15.957 72.9674Z" fill="black"/>
<path d="M16.6543 71.5116C16.7312 71.5308 16.808 71.55 16.8872 71.5698C16.868 71.6083 16.8488 71.6467 16.829 71.6863C16.7713 71.6671 16.7137 71.6479 16.6543 71.6281C16.6543 71.5896 16.6543 71.5512 16.6543 71.5116Z" fill="black"/>
<path d="M23.1191 70.6963C23.1768 70.6963 23.2344 70.6963 23.2938 70.6963C23.2938 70.7539 23.2938 70.8116 23.2938 70.871C23.2362 70.871 23.1785 70.871 23.1191 70.871C23.1191 70.8133 23.1191 70.7557 23.1191 70.6963Z" fill="black"/>
<path d="M29.7578 69.5898C29.8155 69.6091 29.8731 69.6283 29.9325 69.6481C29.9133 69.7057 29.8941 69.7634 29.8743 69.8228C29.8358 69.8036 29.7974 69.7843 29.7578 69.7645C29.7578 69.7069 29.7578 69.6492 29.7578 69.5898Z" fill="black"/>
<path d="M3.95898 14.3838C4.01664 14.3838 4.07429 14.3838 4.13369 14.3838C4.13369 14.4414 4.13369 14.4991 4.13369 14.5585C4.07604 14.5585 4.01838 14.5585 3.95898 14.5585C3.95898 14.5008 3.95898 14.4432 3.95898 14.3838Z" fill="black"/>
<path d="M22.07 12.2874C22.1276 12.3066 22.1853 12.3258 22.2447 12.3456C22.2254 12.384 22.2062 12.4225 22.1864 12.4621C22.1288 12.4621 22.0711 12.4621 22.0117 12.4621C22.0309 12.4044 22.0502 12.3468 22.07 12.2874Z" fill="black"/>
<path d="M25.7402 9.66687C25.7979 9.66687 25.8555 9.66687 25.9149 9.66687C25.9149 9.72452 25.9149 9.78217 25.9149 9.84157C25.8573 9.84157 25.7996 9.84157 25.7402 9.84157C25.7402 9.78392 25.7402 9.72627 25.7402 9.66687Z" fill="black"/>
<path d="M13.1035 7.39575C13.2765 7.39575 13.4494 7.39575 13.6276 7.39575C13.6276 7.41497 13.6276 7.43419 13.6276 7.45399C13.4547 7.45399 13.2817 7.45399 13.1035 7.45399C13.1035 7.43477 13.1035 7.41555 13.1035 7.39575Z" fill="black"/>
<path d="M24.5742 3.9599C24.6319 3.9599 24.6895 3.9599 24.7489 3.9599C24.7489 4.01755 24.7489 4.0752 24.7489 4.1346C24.6913 4.1346 24.6336 4.1346 24.5742 4.1346C24.5742 4.07695 24.5742 4.0193 24.5742 3.9599Z" fill="black"/>
<path d="M19.8574 75.0638C19.9151 75.0638 19.9727 75.0638 20.0321 75.0638C20.0129 75.1215 19.9937 75.1791 19.9739 75.2385C19.9355 75.2385 19.897 75.2385 19.8574 75.2385C19.8574 75.1809 19.8574 75.1232 19.8574 75.0638Z" fill="black"/>
<path d="M15.6071 74.0739C15.6647 74.0931 15.7224 74.1123 15.7818 74.1321C15.7625 74.1705 15.7433 74.209 15.7235 74.2486C15.6659 74.2293 15.6082 74.2101 15.5488 74.1903C15.568 74.1519 15.5873 74.1135 15.6071 74.0739Z" fill="black"/>
<path d="M20.9062 72.9092C20.9831 72.9284 21.06 72.9476 21.1392 72.9674C21.0815 73.0058 21.0239 73.0443 20.9645 73.0839C20.9453 73.0262 20.926 72.9686 20.9062 72.9092Z" fill="black"/>
<path d="M88.8652 72.618C88.9421 72.618 89.019 72.618 89.0982 72.618C89.0982 72.6565 89.0982 72.6949 89.0982 72.7345C89.0213 72.7345 88.9444 72.7345 88.8652 72.7345C88.8652 72.6961 88.8652 72.6576 88.8652 72.618Z" fill="black"/>
<path d="M43.209 67.4352C43.2666 67.4352 43.3243 67.4352 43.3837 67.4352C43.3645 67.4928 43.3453 67.5505 43.3255 67.6099C43.287 67.6099 43.2486 67.6099 43.209 67.6099C43.209 67.5522 43.209 67.4946 43.209 67.4352Z" fill="black"/>
<path d="M59.1071 41.9868C59.1647 42.006 59.2224 42.0253 59.2818 42.0451C59.2625 42.0835 59.2433 42.1219 59.2235 42.1615C59.1659 42.1423 59.1082 42.1231 59.0488 42.1033C59.068 42.0649 59.0873 42.0264 59.1071 41.9868Z" fill="black"/>
<path d="M35.582 20.6731C35.6397 20.6731 35.6973 20.6731 35.7567 20.6731C35.7375 20.7307 35.7183 20.7884 35.6985 20.8478C35.6601 20.8478 35.6216 20.8478 35.582 20.8478C35.582 20.7901 35.582 20.7325 35.582 20.6731Z" fill="black"/>
<path d="M5.47425 3.9599C5.51268 3.9599 5.55112 3.9599 5.59072 3.9599C5.59072 4.01755 5.59072 4.0752 5.59072 4.1346C5.53307 4.1346 5.47541 4.1346 5.41602 4.1346C5.43523 4.07695 5.45445 4.0193 5.47425 3.9599Z" fill="black"/>
<path d="M31.8535 88.8654C31.9112 88.8846 31.9688 88.9038 32.0282 88.9236C32.009 88.962 31.9898 89.0005 31.97 89.0401C31.9315 89.0401 31.8931 89.0401 31.8535 89.0401C31.8535 88.9824 31.8535 88.9248 31.8535 88.8654Z" fill="black"/>
<path d="M37.6191 84.2067C37.696 84.2259 37.7729 84.2451 37.8521 84.2649C37.7752 84.2841 37.6983 84.3033 37.6191 84.3231C37.6191 84.2847 37.6191 84.2463 37.6191 84.2067Z" fill="black"/>
<path d="M23.1774 83.8572C23.2158 83.8764 23.2542 83.8956 23.2938 83.9154C23.2938 83.9538 23.2938 83.9923 23.2938 84.0319C23.2362 84.0319 23.1785 84.0319 23.1191 84.0319C23.1384 83.9742 23.1576 83.9166 23.1774 83.8572Z" fill="black"/>
<path d="M32.6696 83.5078C32.708 83.5078 32.7464 83.5078 32.786 83.5078C32.786 83.5655 32.786 83.6231 32.786 83.6825C32.7284 83.6633 32.6707 83.6441 32.6113 83.6243C32.6305 83.5858 32.6498 83.5474 32.6696 83.5078Z" fill="black"/>
<path d="M58.6992 42.7439C58.7569 42.7439 58.8145 42.7439 58.8739 42.7439C58.8547 42.8015 58.8355 42.8592 58.8157 42.9186C58.7773 42.8994 58.7388 42.8802 58.6992 42.8604C58.6992 42.8219 58.6992 42.7835 58.6992 42.7439Z" fill="black"/>
<path d="M58.6992 32.3199C58.7569 32.3199 58.8145 32.3199 58.8739 32.3199C58.8547 32.3776 58.8355 32.4352 58.8157 32.4946C58.7773 32.4754 58.7388 32.4562 58.6992 32.4364C58.6992 32.398 58.6992 32.3595 58.6992 32.3199Z" fill="black"/>
<path d="M2.91175 12.928C2.95018 12.928 2.98862 12.928 3.02822 12.928C3.02822 12.9856 3.02822 13.0433 3.02822 13.1027C2.97057 13.0835 2.91291 13.0642 2.85352 13.0444C2.87273 13.006 2.89195 12.9676 2.91175 12.928Z" fill="black"/>
<path d="M32.6113 88.516C32.6498 88.516 32.6882 88.516 32.7278 88.516C32.7278 88.5736 32.7278 88.6313 32.7278 88.6907C32.6894 88.6907 32.6509 88.6907 32.6113 88.6907C32.6113 88.633 32.6113 88.5754 32.6113 88.516Z" fill="black"/>
<path d="M20.9648 81.7025C21.0033 81.7025 21.0417 81.7025 21.0813 81.7025C21.0813 81.7602 21.0813 81.8178 21.0813 81.8772C21.0429 81.8772 21.0044 81.8772 20.9648 81.8772C20.9648 81.8196 20.9648 81.7619 20.9648 81.7025Z" fill="black"/>
<path d="M34.4746 81.3531C34.5323 81.3531 34.5899 81.3531 34.6493 81.3531C34.6493 81.3916 34.6493 81.43 34.6493 81.4696C34.5917 81.4696 34.534 81.4696 34.4746 81.4696C34.4746 81.4312 34.4746 81.3927 34.4746 81.3531Z" fill="black"/>
<path d="M89.5645 80.5961C89.6413 80.6153 89.7182 80.6345 89.7974 80.6543C89.7205 80.6543 89.6437 80.6543 89.5645 80.6543C89.5645 80.6351 89.5645 80.6159 89.5645 80.5961Z" fill="black"/>
<path d="M15.6074 80.5378C15.6651 80.5378 15.7227 80.5378 15.7821 80.5378C15.7821 80.5763 15.7821 80.6147 15.7821 80.6543C15.7245 80.6543 15.6668 80.6543 15.6074 80.6543C15.6074 80.6159 15.6074 80.5774 15.6074 80.5378Z" fill="black"/>
<path d="M19.8574 79.5479C19.9151 79.5479 19.9727 79.5479 20.0321 79.5479C20.0321 79.5863 20.0321 79.6247 20.0321 79.6643C19.9745 79.6643 19.9168 79.6643 19.8574 79.6643C19.8574 79.6259 19.8574 79.5875 19.8574 79.5479Z" fill="black"/>
<path d="M89.9727 74.0739C90.0303 74.0739 90.088 74.0739 90.1474 74.0739C90.1474 74.1123 90.1474 74.1507 90.1474 74.1903C90.0897 74.1903 90.0321 74.1903 89.9727 74.1903C89.9727 74.1519 89.9727 74.1135 89.9727 74.0739Z" fill="black"/>
<path d="M34.4746 73.3169C34.5323 73.3169 34.5899 73.3169 34.6493 73.3169C34.6493 73.3553 34.6493 73.3938 34.6493 73.4334C34.5917 73.4334 34.534 73.4334 34.4746 73.4334C34.4746 73.3949 34.4746 73.3565 34.4746 73.3169Z" fill="black"/>
<path d="M31.5625 70.3469C31.6009 70.3469 31.6394 70.3469 31.679 70.3469C31.679 70.4046 31.679 70.4622 31.679 70.5216C31.6405 70.5216 31.6021 70.5216 31.5625 70.5216C31.5625 70.464 31.5625 70.4063 31.5625 70.3469Z" fill="black"/>
<path d="M17.4121 70.114C17.4698 70.114 17.5274 70.114 17.5868 70.114C17.5868 70.1524 17.5868 70.1909 17.5868 70.2305C17.5292 70.2305 17.4715 70.2305 17.4121 70.2305C17.4121 70.192 17.4121 70.1536 17.4121 70.114Z" fill="black"/>
<path d="M58.002 68.1923C58.0596 68.1923 58.1173 68.1923 58.1767 68.1923C58.1767 68.2307 58.1767 68.2691 58.1767 68.3087C58.119 68.3087 58.0614 68.3087 58.002 68.3087C58.002 68.2703 58.002 68.2319 58.002 68.1923Z" fill="black"/>
<path d="M59.1074 33.0188C59.1459 33.0188 59.1843 33.0188 59.2239 33.0188C59.2239 33.0765 59.2239 33.1341 59.2239 33.1935C59.1855 33.1935 59.147 33.1935 59.1074 33.1935C59.1074 33.1358 59.1074 33.0782 59.1074 33.0188Z" fill="black"/>
<path d="M32.5527 12.6951C32.6104 12.6951 32.668 12.6951 32.7274 12.6951C32.7274 12.7335 32.7274 12.7719 32.7274 12.8115C32.6698 12.8115 32.6121 12.8115 32.5527 12.8115C32.5527 12.7731 32.5527 12.7347 32.5527 12.6951Z" fill="black"/>
<path d="M26.4961 10.424C26.5537 10.424 26.6114 10.424 26.6708 10.424C26.6708 10.4624 26.6708 10.5008 26.6708 10.5404C26.6131 10.5404 26.5555 10.5404 26.4961 10.5404C26.4961 10.502 26.4961 10.4635 26.4961 10.424Z" fill="black"/>
<path d="M31.0977 9.08447C31.1553 9.08447 31.213 9.08447 31.2724 9.08447C31.2724 9.12291 31.2724 9.16134 31.2724 9.20094C31.2147 9.20094 31.1571 9.20094 31.0977 9.20094C31.0977 9.16251 31.0977 9.12407 31.0977 9.08447Z" fill="black"/>
<path d="M30.3984 8.32751C30.4561 8.32751 30.5137 8.32751 30.5731 8.32751C30.5731 8.36595 30.5731 8.40438 30.5731 8.44398C30.5155 8.44398 30.4578 8.44398 30.3984 8.44398C30.3984 8.40555 30.3984 8.36711 30.3984 8.32751Z" fill="black"/>
<path d="M26.3809 4.71698C26.4385 4.71698 26.4962 4.71698 26.5556 4.71698C26.5556 4.75541 26.5556 4.79385 26.5556 4.83345C26.4979 4.83345 26.4403 4.83345 26.3809 4.83345C26.3809 4.79501 26.3809 4.75658 26.3809 4.71698Z" fill="black"/>
<path d="M33.775 82.4014C33.8135 82.4014 33.8519 82.4014 33.8915 82.4014C33.8915 82.4398 33.8915 82.4782 33.8915 82.5178C33.8338 82.4986 33.7762 82.4794 33.7168 82.4596C33.736 82.4404 33.7552 82.4212 33.775 82.4014Z" fill="black"/>
<path d="M87.8164 82.3431C87.8548 82.3431 87.8933 82.3431 87.9329 82.3431C87.9137 82.4008 87.8944 82.4584 87.8746 82.5178C87.8554 82.4602 87.8362 82.4025 87.8164 82.3431Z" fill="black"/>
<path d="M35.1738 79.5479C35.2315 79.5479 35.2891 79.5479 35.3485 79.5479C35.3485 79.5863 35.3485 79.6247 35.3485 79.6643C35.2909 79.6451 35.2332 79.6259 35.1738 79.6061C35.1738 79.5869 35.1738 79.5677 35.1738 79.5479Z" fill="black"/>
<path d="M16.3047 72.2687C16.3623 72.2687 16.42 72.2687 16.4794 72.2687C16.4794 72.3071 16.4794 72.3455 16.4794 72.3851C16.4217 72.3659 16.3641 72.3467 16.3047 72.3269C16.3047 72.3077 16.3047 72.2885 16.3047 72.2687Z" fill="black"/>
<path d="M5.47425 15.4902C5.51268 15.4902 5.55112 15.4902 5.59072 15.4902C5.59072 15.5287 5.59072 15.5671 5.59072 15.6067C5.53307 15.5875 5.47541 15.5683 5.41602 15.5485C5.43523 15.5293 5.45445 15.51 5.47425 15.4902Z" fill="black"/>
<path d="M4.30859 14.7915C4.36625 14.7915 4.4239 14.7915 4.4833 14.7915C4.4833 14.8299 4.4833 14.8684 4.4833 14.908C4.42564 14.8888 4.36799 14.8695 4.30859 14.8497C4.30859 14.8305 4.30859 14.8113 4.30859 14.7915Z" fill="black"/>
<path d="M24.3418 89.2731C24.3802 89.2731 24.4187 89.2731 24.4583 89.2731C24.4583 89.3115 24.4583 89.3499 24.4583 89.3895C24.4198 89.3895 24.3814 89.3895 24.3418 89.3895C24.3418 89.3511 24.3418 89.3127 24.3418 89.2731Z" fill="black"/>
<path d="M88.166 82.3431C88.2045 82.3431 88.2429 82.3431 88.2825 82.3431C88.2825 82.3816 88.2825 82.42 88.2825 82.4596C88.244 82.4596 88.2056 82.4596 88.166 82.4596C88.166 82.4212 88.166 82.3827 88.166 82.3431Z" fill="black"/>
<path d="M85.7207 78.4414C85.7591 78.4414 85.7976 78.4414 85.8372 78.4414C85.8372 78.4798 85.8372 78.5183 85.8372 78.5579C85.7987 78.5579 85.7603 78.5579 85.7207 78.5579C85.7207 78.5194 85.7207 78.481 85.7207 78.4414Z" fill="black"/>
<path d="M35.2324 75.1221C35.2709 75.1221 35.3093 75.1221 35.3489 75.1221C35.3489 75.1605 35.3489 75.1989 35.3489 75.2385C35.3105 75.2385 35.272 75.2385 35.2324 75.2385C35.2324 75.2001 35.2324 75.1617 35.2324 75.1221Z" fill="black"/>
<path d="M6.52148 15.8397C6.55992 15.8782 6.59835 15.9166 6.63795 15.9562C6.5803 15.985 6.5803 15.985 6.52148 16.0144C6.52148 15.9568 6.52148 15.8991 6.52148 15.8397Z" fill="black"/>
<path d="M26.1465 10.0745C26.1849 10.0745 26.2234 10.0745 26.263 10.0745C26.263 10.1129 26.263 10.1513 26.263 10.1909C26.2245 10.1909 26.1861 10.1909 26.1465 10.1909C26.1465 10.1525 26.1465 10.1141 26.1465 10.0745Z" fill="black"/>
<path d="M16.7129 83.4496C16.7705 83.4784 16.7705 83.4784 16.8294 83.5078C16.7717 83.5366 16.7717 83.5366 16.7129 83.5661C16.7129 83.5276 16.7129 83.4892 16.7129 83.4496Z" fill="black"/>
<path d="M34.8242 80.6543C34.9989 80.7125 34.9989 80.7125 34.9989 80.7125L34.8242 80.6543Z" fill="black"/>
<path d="M86.3613 70.8127C86.3998 70.8512 86.4382 70.8896 86.4778 70.9292C86.4394 70.9292 86.4009 70.9292 86.3613 70.9292C86.3613 70.8908 86.3613 70.8523 86.3613 70.8127Z" fill="black"/>
<path d="M25.6816 4.36755C25.7393 4.39638 25.7393 4.39638 25.7981 4.42579C25.7405 4.45461 25.7405 4.45461 25.6816 4.48402C25.6816 4.44559 25.6816 4.40715 25.6816 4.36755Z" fill="black"/>
<path d="M2.91211 6.58044C3.02858 6.63868 3.02858 6.63868 3.02858 6.63868L2.91211 6.58044Z" fill="black"/>
</svg>
